{"glyphs":{"0":{"ha":1215,"x_min":174,"x_max":1042,"o":"m 347 1215 l 868 1215 l 868 1042 l 347 1042 l 347 1215 m 868 1042 l 1042 1042 l 1042 174 l 868 174 l 868 1042 m 868 174 l 868 0 l 347 0 l 347 174 l 868 174 m 347 174 l 174 174 l 174 1042 l 347 1042 l 347 174 m 521 868 l 694 868 l 694 347 l 521 347 l 521 868 z "},"1":{"ha":1215,"x_min":174,"x_max":1042,"o":"m 521 1215 l 694 1215 l 694 174 l 1042 174 l 1042 0 l 174 0 l 174 174 l 521 174 l 521 868 l 174 868 l 174 1042 l 521 1042 l 521 1215 z "},"2":{"ha":1215,"x_min":174,"x_max":1042,"o":"m 347 1215 l 868 1215 l 868 1042 l 347 1042 l 347 1215 m 868 1042 l 1042 1042 l 1042 694 l 868 694 l 868 1042 m 868 694 l 868 521 l 694 521 l 694 694 l 868 694 m 694 521 l 694 347 l 521 347 l 521 521 l 694 521 m 521 347 l 521 174 l 1042 174 l 1042 0 l 174 0 l 174 174 l 347 174 l 347 347 l 521 347 m 347 1042 l 347 868 l 174 868 l 174 1042 l 347 1042 z "},"3":{"ha":1215,"x_min":174,"x_max":1042,"o":"m 174 1215 l 868 1215 l 868 1042 l 174 1042 l 174 1215 m 868 1042 l 1042 1042 l 1042 694 l 868 694 l 868 1042 m 868 694 l 868 521 l 347 521 l 347 694 l 868 694 m 868 521 l 1042 521 l 1042 174 l 868 174 l 868 521 m 868 174 l 868 0 l 174 0 l 174 174 l 868 174 z "},"4":{"ha":1215,"x_min":174,"x_max":1042,"o":"m 694 1215 l 868 1215 l 868 521 l 1042 521 l 1042 347 l 868 347 l 868 0 l 694 0 l 694 347 l 174 347 l 174 694 l 347 694 l 347 521 l 694 521 l 694 868 l 521 868 l 521 1042 l 694 1042 l 694 1215 m 347 694 l 347 868 l 521 868 l 521 694 l 347 694 z "},"5":{"ha":1215,"x_min":174,"x_max":1042,"o":"m 174 1215 l 1042 1215 l 1042 1042 l 347 1042 l 347 868 l 868 868 l 868 694 l 174 694 l 174 1215 m 868 694 l 1042 694 l 1042 174 l 868 174 l 868 694 m 868 174 l 868 0 l 347 0 l 347 174 l 868 174 m 347 174 l 174 174 l 174 347 l 347 347 l 347 174 z "},"6":{"ha":1215,"x_min":174,"x_max":1042,"o":"m 347 1215 l 868 1215 l 868 1042 l 347 1042 l 347 1215 m 868 1042 l 1042 1042 l 1042 868 l 868 868 l 868 1042 m 347 1042 l 347 694 l 868 694 l 868 521 l 347 521 l 347 174 l 174 174 l 174 1042 l 347 1042 m 868 521 l 1042 521 l 1042 174 l 868 174 l 868 521 m 868 174 l 868 0 l 347 0 l 347 174 l 868 174 z "},"7":{"ha":1215,"x_min":174,"x_max":1042,"o":"m 174 1215 l 1042 1215 l 1042 694 l 868 694 l 868 1042 l 347 1042 l 347 868 l 174 868 l 174 1215 m 868 694 l 868 521 l 694 521 l 694 694 l 868 694 m 694 521 l 694 347 l 521 347 l 521 521 l 694 521 m 521 347 l 521 0 l 347 0 l 347 347 l 521 347 z "},"8":{"ha":1215,"x_min":174,"x_max":1042,"o":"m 347 1215 l 868 1215 l 868 1042 l 347 1042 l 347 1215 m 868 1042 l 1042 1042 l 1042 694 l 868 694 l 868 1042 m 868 694 l 868 521 l 347 521 l 347 694 l 868 694 m 868 521 l 1042 521 l 1042 174 l 868 174 l 868 521 m 868 174 l 868 0 l 347 0 l 347 174 l 868 174 m 347 174 l 174 174 l 174 521 l 347 521 l 347 174 m 347 694 l 174 694 l 174 1042 l 347 1042 l 347 694 z "},"9":{"ha":1215,"x_min":174,"x_max":1042,"o":"m 347 1215 l 868 1215 l 868 1042 l 347 1042 l 347 1215 m 868 1042 l 1042 1042 l 1042 347 l 868 347 l 868 521 l 347 521 l 347 694 l 868 694 l 868 1042 m 868 347 l 868 174 l 694 174 l 694 347 l 868 347 m 694 174 l 694 0 l 347 0 l 347 174 l 694 174 m 347 694 l 174 694 l 174 1042 l 347 1042 l 347 694 z "},"\u0000":{"ha":1389,"x_min":0,"x_max":0,"o":""},"\r":{"ha":1389,"x_min":0,"x_max":0,"o":""},"\u0001":{"ha":1389,"x_min":0,"x_max":0,"o":""},"\u0002":{"ha":1389,"x_min":0,"x_max":0,"o":""},"\u0003":{"ha":1389,"x_min":0,"x_max":0,"o":""},"\u0004":{"ha":1389,"x_min":0,"x_max":0,"o":""},"\u0005":{"ha":1389,"x_min":0,"x_max":0,"o":""},"\u0006":{"ha":1389,"x_min":0,"x_max":0,"o":""},"\u0007":{"ha":1389,"x_min":0,"x_max":0,"o":""},"\b":{"ha":1389,"x_min":0,"x_max":0,"o":""},"\t":{"ha":1389,"x_min":0,"x_max":0,"o":""},"\n":{"ha":1389,"x_min":0,"x_max":0,"o":""},"\u000b":{"ha":1389,"x_min":0,"x_max":0,"o":""},"\f":{"ha":1389,"x_min":0,"x_max":0,"o":""},"\u000e":{"ha":1389,"x_min":0,"x_max":0,"o":""},"\u000f":{"ha":1389,"x_min":0,"x_max":0,"o":""},"\u0010":{"ha":1389,"x_min":0,"x_max":0,"o":""},"\u0011":{"ha":1389,"x_min":0,"x_max":0,"o":""},"\u0012":{"ha":1389,"x_min":0,"x_max":0,"o":""},"\u0013":{"ha":1389,"x_min":0,"x_max":0,"o":""},"\u0014":{"ha":1389,"x_min":0,"x_max":0,"o":""},"\u0015":{"ha":1389,"x_min":0,"x_max":0,"o":""},"\u0016":{"ha":1389,"x_min":0,"x_max":0,"o":""},"\u0017":{"ha":1389,"x_min":0,"x_max":0,"o":""},"\u0018":{"ha":1389,"x_min":0,"x_max":0,"o":""},"\u0019":{"ha":1389,"x_min":0,"x_max":0,"o":""},"\u001a":{"ha":1389,"x_min":0,"x_max":0,"o":""},"\u001b":{"ha":1389,"x_min":0,"x_max":0,"o":""},"\u001c":{"ha":1389,"x_min":0,"x_max":0,"o":""},"\u001d":{"ha":1389,"x_min":0,"x_max":0,"o":""},"\u001e":{"ha":1389,"x_min":0,"x_max":0,"o":""},"\u001f":{"ha":1389,"x_min":0,"x_max":0,"o":""}," ":{"ha":694,"x_min":0,"x_max":0,"o":""},"!":{"ha":521,"x_min":174,"x_max":347,"o":"m 174 1215 l 347 1215 l 347 347 l 174 347 l 174 1215 m 174 174 l 347 174 l 347 0 l 174 0 l 174 174 z "},"\"":{"ha":1042,"x_min":174,"x_max":868,"o":"m 347 1042 l 521 1042 l 521 694 l 347 694 l 347 1042 m 521 694 l 694 694 l 694 521 l 521 521 l 521 694 m 694 694 l 694 1042 l 868 1042 l 868 694 l 694 694 m 347 694 l 347 521 l 174 521 l 174 694 l 347 694 z "},"#":{"ha":1389,"x_min":174,"x_max":1215,"o":"m 347 1042 l 521 1042 l 521 868 l 868 868 l 868 1042 l 1042 1042 l 1042 868 l 1215 868 l 1215 694 l 1042 694 l 1042 347 l 1215 347 l 1215 174 l 1042 174 l 1042 0 l 868 0 l 868 174 l 521 174 l 521 0 l 347 0 l 347 174 l 174 174 l 174 347 l 347 347 l 347 694 l 174 694 l 174 868 l 347 868 l 347 1042 m 521 694 l 521 347 l 868 347 l 868 694 l 521 694 z "},"$":{"ha":1215,"x_min":174,"x_max":1042,"o":"m 347 1042 l 868 1042 l 868 868 l 694 868 l 694 521 l 868 521 l 868 347 l 694 347 l 694 0 l 868 0 l 868 -174 l 347 -174 l 347 0 l 521 0 l 521 347 l 347 347 l 347 521 l 521 521 l 521 868 l 347 868 l 347 1042 m 868 868 l 1042 868 l 1042 694 l 868 694 l 868 868 m 868 347 l 1042 347 l 1042 0 l 868 0 l 868 347 m 347 0 l 174 0 l 174 174 l 347 174 l 347 0 m 347 521 l 174 521 l 174 868 l 347 868 l 347 521 z "},"%":{"ha":1563,"x_min":174,"x_max":1389,"o":"m 549 347 l 549 344 l 549 347 m 549 344 l 549 333 l 549 344 m 347 1215 l 521 1215 l 521 1042 l 347 1042 l 347 1215 m 521 1042 l 694 1042 l 694 694 l 521 694 l 521 1042 m 694 694 l 868 694 l 868 347 l 694 347 l 694 694 m 868 694 l 868 1042 l 1042 1042 l 1042 694 l 868 694 m 1042 1042 l 1042 1215 l 1215 1215 l 1215 1042 l 1042 1042 m 868 347 l 1042 347 l 1042 0 l 868 0 l 868 347 m 1042 347 l 1042 521 l 1215 521 l 1215 347 l 1042 347 m 1215 347 l 1389 347 l 1389 0 l 1215 0 l 1215 347 m 1215 0 l 1215 -174 l 1042 -174 l 1042 0 l 1215 0 m 694 347 l 694 0 l 521 0 l 521 347 l 694 347 m 521 0 l 521 -174 l 347 -174 l 347 0 l 521 0 m 521 694 l 521 521 l 347 521 l 347 694 l 521 694 m 347 694 l 174 694 l 174 1042 l 347 1042 l 347 694 z "},"&":{"ha":1389,"x_min":174,"x_max":1215,"o":"m 347 1215 l 694 1215 l 694 1042 l 347 1042 l 347 1215 m 694 1042 l 868 1042 l 868 694 l 694 694 l 694 1042 m 694 694 l 694 521 l 347 521 l 347 694 l 694 694 m 694 521 l 868 521 l 868 347 l 694 347 l 694 521 m 868 347 l 1042 347 l 1042 174 l 868 174 l 868 347 m 1042 347 l 1042 521 l 1215 521 l 1215 347 l 1042 347 m 1042 174 l 1215 174 l 1215 0 l 1042 0 l 1042 174 m 868 174 l 868 0 l 347 0 l 347 174 l 868 174 m 347 174 l 174 174 l 174 521 l 347 521 l 347 174 m 347 694 l 174 694 l 174 1042 l 347 1042 l 347 694 z "},"'":{"ha":694,"x_min":174,"x_max":521,"o":"m 347 1042 l 521 1042 l 521 694 l 347 694 l 347 1042 m 347 694 l 347 521 l 174 521 l 174 694 l 347 694 z "},"(":{"ha":694,"x_min":174,"x_max":521,"o":"m 347 1215 l 521 1215 l 521 1042 l 347 1042 l 347 1215 m 347 1042 l 347 174 l 174 174 l 174 1042 l 347 1042 m 347 174 l 521 174 l 521 0 l 347 0 l 347 174 z "},")":{"ha":694,"x_min":174,"x_max":521,"o":"m 174 1215 l 347 1215 l 347 1042 l 174 1042 l 174 1215 m 347 1042 l 521 1042 l 521 174 l 347 174 l 347 1042 m 347 174 l 347 0 l 174 0 l 174 174 l 347 174 z "},"*":{"ha":1215,"x_min":174,"x_max":1042,"o":"m 521 1042 l 694 1042 l 694 694 l 521 694 l 521 1042 m 694 694 l 868 694 l 868 521 l 694 521 l 694 694 m 868 694 l 868 868 l 1042 868 l 1042 694 l 868 694 m 868 521 l 1042 521 l 1042 347 l 868 347 l 868 521 m 694 521 l 694 174 l 521 174 l 521 521 l 694 521 m 521 521 l 347 521 l 347 694 l 521 694 l 521 521 m 347 521 l 347 347 l 174 347 l 174 521 l 347 521 m 347 694 l 174 694 l 174 868 l 347 868 l 347 694 z "},"+":{"ha":1215,"x_min":174,"x_max":1042,"o":"m 521 1042 l 694 1042 l 694 694 l 1042 694 l 1042 521 l 694 521 l 694 174 l 521 174 l 521 521 l 174 521 l 174 694 l 521 694 l 521 1042 z "},",":{"ha":694,"x_min":174,"x_max":521,"o":"m 347 347 l 521 347 l 521 0 l 347 0 l 347 347 m 347 0 l 347 -174 l 174 -174 l 174 0 l 347 0 z "},"-":{"ha":1042,"x_min":174,"x_max":868,"o":"m 174 521 l 868 521 l 868 347 l 174 347 l 174 521 z "},".":{"ha":521,"x_min":174,"x_max":347,"o":"m 174 174 l 347 174 l 347 0 l 174 0 l 174 174 z "},"/":{"ha":1042,"x_min":174,"x_max":868,"o":"m 694 1215 l 868 1215 l 868 868 l 694 868 l 694 1215 m 694 868 l 694 521 l 521 521 l 521 868 l 694 868 m 521 521 l 521 174 l 347 174 l 347 521 l 521 521 m 347 174 l 347 -174 l 174 -174 l 174 174 l 347 174 z "},":":{"ha":521,"x_min":174,"x_max":347,"o":"m 174 868 l 347 868 l 347 694 l 174 694 l 174 868 m 174 347 l 347 347 l 347 174 l 174 174 l 174 347 z "},";":{"ha":694,"x_min":174,"x_max":521,"o":"m 347 694 l 521 694 l 521 521 l 347 521 l 347 694 m 347 347 l 521 347 l 521 0 l 347 0 l 347 347 m 347 0 l 347 -174 l 174 -174 l 174 0 l 347 0 z "},"<":{"ha":868,"x_min":174,"x_max":694,"o":"m 521 1042 l 694 1042 l 694 868 l 521 868 l 521 1042 m 521 868 l 521 694 l 347 694 l 347 868 l 521 868 m 347 694 l 347 521 l 174 521 l 174 694 l 347 694 m 347 521 l 521 521 l 521 347 l 347 347 l 347 521 m 521 347 l 694 347 l 694 174 l 521 174 l 521 347 z "},"=":{"ha":1389,"x_min":174,"x_max":1215,"o":"m 174 868 l 1215 868 l 1215 694 l 174 694 l 174 868 m 174 521 l 1215 521 l 1215 347 l 174 347 l 174 521 z "},">":{"ha":868,"x_min":174,"x_max":694,"o":"m 174 1042 l 347 1042 l 347 868 l 174 868 l 174 1042 m 347 868 l 521 868 l 521 694 l 347 694 l 347 868 m 521 694 l 694 694 l 694 521 l 521 521 l 521 694 m 521 521 l 521 347 l 347 347 l 347 521 l 521 521 m 347 347 l 347 174 l 174 174 l 174 347 l 347 347 z "},"?":{"ha":1215,"x_min":174,"x_max":1042,"o":"m 347 1215 l 868 1215 l 868 1042 l 347 1042 l 347 1215 m 868 1042 l 1042 1042 l 1042 694 l 868 694 l 868 1042 m 868 694 l 868 521 l 521 521 l 521 694 l 868 694 m 521 521 l 521 347 l 347 347 l 347 521 l 521 521 m 347 1042 l 347 868 l 174 868 l 174 1042 l 347 1042 m 521 174 l 694 174 l 694 0 l 521 0 l 521 174 z "},"@":{"ha":1563,"x_min":174,"x_max":1389,"o":"m 347 1215 l 1042 1215 l 1042 1042 l 347 1042 l 347 1215 m 1042 1042 l 1215 1042 l 1215 521 l 1042 521 l 1042 1042 m 1042 521 l 1042 347 l 521 347 l 521 521 l 694 521 l 694 694 l 521 694 l 521 868 l 868 868 l 868 521 l 1042 521 m 347 1042 l 347 174 l 174 174 l 174 1042 l 347 1042 m 347 174 l 1215 174 l 1215 0 l 347 0 l 347 174 m 1215 174 l 1215 347 l 1389 347 l 1389 174 l 1215 174 z "},"A":{"ha":1215,"x_min":174,"x_max":1042,"o":"m 347 1215 l 868 1215 l 868 1042 l 347 1042 l 347 1215 m 868 1042 l 1042 1042 l 1042 0 l 868 0 l 868 347 l 347 347 l 347 0 l 174 0 l 174 1042 l 347 1042 l 347 521 l 868 521 l 868 1042 z "},"B":{"ha":1215,"x_min":174,"x_max":1042,"o":"m 174 1215 l 868 1215 l 868 1042 l 347 1042 l 347 694 l 868 694 l 868 521 l 347 521 l 347 174 l 868 174 l 868 0 l 174 0 l 174 1215 m 868 1042 l 1042 1042 l 1042 694 l 868 694 l 868 1042 m 868 521 l 1042 521 l 1042 174 l 868 174 l 868 521 z "},"C":{"ha":1215,"x_min":174,"x_max":1042,"o":"m 347 1215 l 868 1215 l 868 1042 l 347 1042 l 347 1215 m 868 1042 l 1042 1042 l 1042 868 l 868 868 l 868 1042 m 347 1042 l 347 174 l 174 174 l 174 1042 l 347 1042 m 347 174 l 868 174 l 868 0 l 347 0 l 347 174 m 868 174 l 868 347 l 1042 347 l 1042 174 l 868 174 z "},"D":{"ha":1389,"x_min":174,"x_max":1215,"o":"m 174 1215 l 1042 1215 l 1042 1042 l 521 1042 l 521 174 l 1042 174 l 1042 0 l 347 0 l 347 1042 l 174 1042 l 174 1215 m 1042 1042 l 1215 1042 l 1215 174 l 1042 174 l 1042 1042 z "},"E":{"ha":1215,"x_min":174,"x_max":1042,"o":"m 174 1215 l 1042 1215 l 1042 1042 l 347 1042 l 347 694 l 868 694 l 868 521 l 347 521 l 347 174 l 1042 174 l 1042 0 l 174 0 l 174 1215 z "},"F":{"ha":1215,"x_min":174,"x_max":1042,"o":"m 174 1215 l 1042 1215 l 1042 1042 l 347 1042 l 347 694 l 868 694 l 868 521 l 347 521 l 347 0 l 174 0 l 174 1215 z "},"G":{"ha":1215,"x_min":174,"x_max":1042,"o":"m 347 1215 l 1042 1215 l 1042 1042 l 347 1042 l 347 1215 m 347 1042 l 347 174 l 174 174 l 174 1042 l 347 1042 m 347 174 l 868 174 l 868 521 l 694 521 l 694 694 l 1042 694 l 1042 0 l 347 0 l 347 174 z "},"H":{"ha":1215,"x_min":174,"x_max":1042,"o":"m 174 1215 l 347 1215 l 347 694 l 868 694 l 868 1215 l 1042 1215 l 1042 0 l 868 0 l 868 521 l 347 521 l 347 0 l 174 0 l 174 1215 z "},"I":{"ha":868,"x_min":174,"x_max":694,"o":"m 174 1215 l 694 1215 l 694 1042 l 521 1042 l 521 174 l 694 174 l 694 0 l 174 0 l 174 174 l 347 174 l 347 1042 l 174 1042 l 174 1215 z "},"J":{"ha":1042,"x_min":174,"x_max":868,"o":"m 174 1215 l 868 1215 l 868 1042 l 694 1042 l 694 174 l 521 174 l 521 1042 l 174 1042 l 174 1215 m 521 174 l 521 0 l 174 0 l 174 174 l 521 174 z "},"K":{"ha":1215,"x_min":174,"x_max":1042,"o":"m 174 1215 l 347 1215 l 347 694 l 521 694 l 521 868 l 694 868 l 694 521 l 347 521 l 347 0 l 174 0 l 174 1215 m 694 868 l 694 1042 l 868 1042 l 868 868 l 694 868 m 868 1042 l 868 1215 l 1042 1215 l 1042 1042 l 868 1042 m 694 521 l 868 521 l 868 174 l 694 174 l 694 521 m 868 174 l 1042 174 l 1042 0 l 868 0 l 868 174 z "},"L":{"ha":1042,"x_min":174,"x_max":868,"o":"m 174 1215 l 347 1215 l 347 174 l 868 174 l 868 0 l 174 0 l 174 1215 z "},"M":{"ha":1389,"x_min":174,"x_max":1215,"o":"m 174 1215 l 347 1215 l 347 868 l 521 868 l 521 694 l 347 694 l 347 0 l 174 0 l 174 1215 m 521 694 l 868 694 l 868 521 l 521 521 l 521 694 m 868 694 l 868 868 l 1042 868 l 1042 1215 l 1215 1215 l 1215 0 l 1042 0 l 1042 694 l 868 694 z "},"N":{"ha":1215,"x_min":174,"x_max":1042,"o":"m 174 1215 l 347 1215 l 347 1042 l 521 1042 l 521 868 l 347 868 l 347 0 l 174 0 l 174 1215 m 521 868 l 694 868 l 694 694 l 521 694 l 521 868 m 694 694 l 868 694 l 868 1215 l 1042 1215 l 1042 0 l 868 0 l 868 521 l 694 521 l 694 694 z "},"O":{"ha":1215,"x_min":174,"x_max":1042,"o":"m 347 1215 l 868 1215 l 868 1042 l 347 1042 l 347 1215 m 868 1042 l 1042 1042 l 1042 174 l 868 174 l 868 1042 m 868 174 l 868 0 l 347 0 l 347 174 l 868 174 m 347 174 l 174 174 l 174 1042 l 347 1042 l 347 174 z "},"P":{"ha":1215,"x_min":174,"x_max":1042,"o":"m 174 1215 l 868 1215 l 868 1042 l 347 1042 l 347 694 l 868 694 l 868 521 l 347 521 l 347 0 l 174 0 l 174 1215 m 868 1042 l 1042 1042 l 1042 694 l 868 694 l 868 1042 z "},"Q":{"ha":1215,"x_min":174,"x_max":1042,"o":"m 347 1215 l 868 1215 l 868 1042 l 347 1042 l 347 1215 m 868 1042 l 1042 1042 l 1042 347 l 868 347 l 868 1042 m 868 347 l 868 174 l 694 174 l 694 347 l 868 347 m 868 174 l 1042 174 l 1042 0 l 868 0 l 868 174 m 694 174 l 694 0 l 347 0 l 347 174 l 694 174 m 347 174 l 174 174 l 174 1042 l 347 1042 l 347 174 m 694 347 l 521 347 l 521 521 l 694 521 l 694 347 z "},"R":{"ha":1215,"x_min":174,"x_max":1042,"o":"m 174 1215 l 868 1215 l 868 1042 l 347 1042 l 347 694 l 868 694 l 868 347 l 694 347 l 694 521 l 347 521 l 347 0 l 174 0 l 174 1215 m 868 1042 l 1042 1042 l 1042 694 l 868 694 l 868 1042 m 868 347 l 1042 347 l 1042 0 l 868 0 l 868 347 z "},"S":{"ha":1215,"x_min":174,"x_max":1042,"o":"m 347 1215 l 868 1215 l 868 1042 l 347 1042 l 347 1215 m 868 1042 l 1042 1042 l 1042 868 l 868 868 l 868 1042 m 347 1042 l 347 694 l 174 694 l 174 1042 l 347 1042 m 347 694 l 868 694 l 868 521 l 347 521 l 347 694 m 868 521 l 1042 521 l 1042 174 l 868 174 l 868 521 m 868 174 l 868 0 l 347 0 l 347 174 l 868 174 m 347 174 l 174 174 l 174 347 l 347 347 l 347 174 z "},"T":{"ha":1215,"x_min":174,"x_max":1042,"o":"m 174 1215 l 1042 1215 l 1042 1042 l 694 1042 l 694 0 l 521 0 l 521 1042 l 174 1042 l 174 1215 z "},"U":{"ha":1215,"x_min":174,"x_max":1042,"o":"m 174 1215 l 347 1215 l 347 174 l 174 174 l 174 1215 m 347 174 l 868 174 l 868 0 l 347 0 l 347 174 m 868 174 l 868 1215 l 1042 1215 l 1042 174 l 868 174 z "},"V":{"ha":1215,"x_min":174,"x_max":1042,"o":"m 174 1215 l 347 1215 l 347 521 l 174 521 l 174 1215 m 347 521 l 521 521 l 521 174 l 347 174 l 347 521 m 521 174 l 694 174 l 694 0 l 521 0 l 521 174 m 694 174 l 694 521 l 868 521 l 868 174 l 694 174 m 868 521 l 868 1215 l 1042 1215 l 1042 521 l 868 521 z "},"W":{"ha":1563,"x_min":174,"x_max":1389,"o":"m 174 1215 l 347 1215 l 347 174 l 174 174 l 174 1215 m 347 174 l 521 174 l 521 0 l 347 0 l 347 174 m 521 174 l 521 347 l 694 347 l 694 174 l 521 174 m 694 347 l 694 868 l 868 868 l 868 347 l 694 347 m 868 347 l 1042 347 l 1042 174 l 868 174 l 868 347 m 1042 174 l 1215 174 l 1215 0 l 1042 0 l 1042 174 m 1215 174 l 1215 1215 l 1389 1215 l 1389 174 l 1215 174 z "},"X":{"ha":1215,"x_min":174,"x_max":1042,"o":"m 174 1215 l 347 1215 l 347 868 l 174 868 l 174 1215 m 347 868 l 521 868 l 521 694 l 347 694 l 347 868 m 521 694 l 694 694 l 694 521 l 521 521 l 521 694 m 694 694 l 694 868 l 868 868 l 868 694 l 694 694 m 868 868 l 868 1215 l 1042 1215 l 1042 868 l 868 868 m 694 521 l 868 521 l 868 347 l 694 347 l 694 521 m 868 347 l 1042 347 l 1042 0 l 868 0 l 868 347 m 521 521 l 521 347 l 347 347 l 347 521 l 521 521 m 347 347 l 347 0 l 174 0 l 174 347 l 347 347 z "},"Y":{"ha":1215,"x_min":174,"x_max":1042,"o":"m 174 1215 l 347 1215 l 347 694 l 174 694 l 174 1215 m 347 694 l 521 694 l 521 521 l 347 521 l 347 694 m 521 521 l 694 521 l 694 0 l 521 0 l 521 521 m 694 521 l 694 694 l 868 694 l 868 521 l 694 521 m 868 694 l 868 1215 l 1042 1215 l 1042 694 l 868 694 z "},"Z":{"ha":1215,"x_min":174,"x_max":1042,"o":"m 174 1215 l 1042 1215 l 1042 868 l 868 868 l 868 1042 l 174 1042 l 174 1215 m 868 868 l 868 694 l 694 694 l 694 868 l 868 868 m 694 694 l 694 521 l 521 521 l 521 694 l 694 694 m 521 521 l 521 347 l 347 347 l 347 521 l 521 521 m 347 347 l 347 174 l 1042 174 l 1042 0 l 174 0 l 174 347 l 347 347 z "},"[":{"ha":694,"x_min":174,"x_max":521,"o":"m 174 1215 l 521 1215 l 521 1042 l 347 1042 l 347 174 l 521 174 l 521 0 l 174 0 l 174 1215 z "},"\\":{"ha":1042,"x_min":174,"x_max":868,"o":"m 174 1215 l 347 1215 l 347 868 l 174 868 l 174 1215 m 347 868 l 521 868 l 521 521 l 347 521 l 347 868 m 521 521 l 694 521 l 694 174 l 521 174 l 521 521 m 694 174 l 868 174 l 868 -174 l 694 -174 l 694 174 z "},"]":{"ha":694,"x_min":174,"x_max":521,"o":"m 174 1215 l 521 1215 l 521 0 l 174 0 l 174 174 l 347 174 l 347 1042 l 174 1042 l 174 1215 z "},"^":{"ha":1042,"x_min":174,"x_max":868,"o":"m 347 1042 l 694 1042 l 694 868 l 347 868 l 347 1042 m 694 868 l 868 868 l 868 694 l 694 694 l 694 868 m 347 868 l 347 694 l 174 694 l 174 868 l 347 868 z "},"_":{"ha":1389,"x_min":174,"x_max":1215,"o":"m 174 0 l 1215 0 l 1215 -174 l 174 -174 l 174 0 z "},"`":{"ha":694,"x_min":174,"x_max":521,"o":"m 174 1042 l 347 1042 l 347 868 l 174 868 l 174 1042 m 347 868 l 521 868 l 521 521 l 347 521 l 347 868 z "},"a":{"ha":1215,"x_min":174,"x_max":1042,"o":"m 347 1042 l 868 1042 l 868 868 l 347 868 l 347 1042 m 868 868 l 1042 868 l 1042 0 l 347 0 l 347 174 l 868 174 l 868 521 l 347 521 l 347 694 l 868 694 l 868 868 m 347 174 l 174 174 l 174 521 l 347 521 l 347 174 z "},"b":{"ha":1215,"x_min":174,"x_max":1042,"o":"m 174 1215 l 347 1215 l 347 868 l 868 868 l 868 694 l 347 694 l 347 174 l 868 174 l 868 0 l 174 0 l 174 1215 m 868 694 l 1042 694 l 1042 174 l 868 174 l 868 694 z "},"c":{"ha":1215,"x_min":174,"x_max":1042,"o":"m 347 1042 l 868 1042 l 868 868 l 347 868 l 347 1042 m 868 868 l 1042 868 l 1042 694 l 868 694 l 868 868 m 347 868 l 347 174 l 174 174 l 174 868 l 347 868 m 347 174 l 1042 174 l 1042 0 l 347 0 l 347 174 z "},"d":{"ha":1215,"x_min":174,"x_max":1042,"o":"m 868 1215 l 1042 1215 l 1042 0 l 347 0 l 347 174 l 868 174 l 868 694 l 347 694 l 347 868 l 868 868 l 868 1215 m 347 174 l 174 174 l 174 694 l 347 694 l 347 174 z "},"e":{"ha":1215,"x_min":174,"x_max":1042,"o":"m 347 1042 l 868 1042 l 868 868 l 347 868 l 347 1042 m 868 868 l 1042 868 l 1042 521 l 347 521 l 347 174 l 174 174 l 174 868 l 347 868 l 347 694 l 868 694 l 868 868 m 347 174 l 1042 174 l 1042 0 l 347 0 l 347 174 z "},"f":{"ha":1215,"x_min":174,"x_max":1042,"o":"m 521 1215 l 1042 1215 l 1042 1042 l 521 1042 l 521 1215 m 521 1042 l 521 694 l 868 694 l 868 521 l 521 521 l 521 0 l 347 0 l 347 521 l 174 521 l 174 694 l 347 694 l 347 1042 l 521 1042 z "},"g":{"ha":1215,"x_min":174,"x_max":1042,"o":"m 347 1042 l 1042 1042 l 1042 0 l 868 0 l 868 174 l 347 174 l 347 347 l 868 347 l 868 868 l 347 868 l 347 1042 m 868 0 l 868 -174 l 347 -174 l 347 0 l 868 0 m 347 347 l 174 347 l 174 868 l 347 868 l 347 347 z "},"h":{"ha":1215,"x_min":174,"x_max":1042,"o":"m 174 1215 l 347 1215 l 347 694 l 521 694 l 521 521 l 347 521 l 347 0 l 174 0 l 174 1215 m 521 694 l 521 868 l 868 868 l 868 694 l 521 694 m 868 694 l 1042 694 l 1042 0 l 868 0 l 868 694 z "},"i":{"ha":868,"x_min":174,"x_max":694,"o":"m 347 1215 l 521 1215 l 521 1042 l 347 1042 l 347 1215 m 174 868 l 521 868 l 521 174 l 694 174 l 694 0 l 174 0 l 174 174 l 347 174 l 347 694 l 174 694 l 174 868 z "},"j":{"ha":868,"x_min":174,"x_max":694,"o":"m 174 1042 l 694 1042 l 694 868 l 521 868 l 521 0 l 347 0 l 347 868 l 174 868 l 174 1042 m 347 0 l 347 -174 l 174 -174 l 174 0 l 347 0 z "},"k":{"ha":1215,"x_min":174,"x_max":1042,"o":"m 174 1042 l 347 1042 l 347 521 l 521 521 l 521 694 l 694 694 l 694 521 l 694 347 l 347 347 l 347 0 l 174 0 l 174 1042 m 694 694 l 694 868 l 868 868 l 868 694 l 694 694 m 868 868 l 868 1042 l 1042 1042 l 1042 868 l 868 868 m 694 347 l 868 347 l 868 174 l 694 174 l 694 347 m 868 174 l 1042 174 l 1042 0 l 868 0 l 868 174 z "},"l":{"ha":868,"x_min":174,"x_max":694,"o":"m 174 1042 l 347 1042 l 347 174 l 174 174 l 174 1042 m 347 174 l 694 174 l 694 0 l 347 0 l 347 174 z "},"m":{"ha":1563,"x_min":174,"x_max":1389,"o":"m 347 1042 l 694 1042 l 694 868 l 347 868 l 347 1042 m 694 868 l 868 868 l 868 0 l 694 0 l 694 868 m 868 868 l 868 1042 l 1215 1042 l 1215 868 l 868 868 m 1215 868 l 1389 868 l 1389 0 l 1215 0 l 1215 868 m 347 868 l 347 0 l 174 0 l 174 868 l 347 868 z "},"n":{"ha":1215,"x_min":174,"x_max":1042,"o":"m 521 1042 l 868 1042 l 868 868 l 521 868 l 521 1042 m 868 868 l 1042 868 l 1042 0 l 868 0 l 868 868 m 521 868 l 521 694 l 347 694 l 347 0 l 174 0 l 174 868 l 521 868 z "},"o":{"ha":1215,"x_min":174,"x_max":1042,"o":"m 347 1042 l 868 1042 l 868 868 l 347 868 l 347 1042 m 868 868 l 1042 868 l 1042 174 l 868 174 l 868 868 m 868 174 l 868 0 l 347 0 l 347 174 l 868 174 m 347 174 l 174 174 l 174 868 l 347 868 l 347 174 z "},"p":{"ha":1215,"x_min":174,"x_max":1042,"o":"m 174 1042 l 868 1042 l 868 868 l 347 868 l 347 347 l 868 347 l 868 174 l 347 174 l 347 -174 l 174 -174 l 174 1042 m 868 868 l 1042 868 l 1042 347 l 868 347 l 868 868 z "},"q":{"ha":1215,"x_min":174,"x_max":1042,"o":"m 347 1042 l 1042 1042 l 1042 -174 l 868 -174 l 868 174 l 347 174 l 347 347 l 868 347 l 868 868 l 347 868 l 347 1042 m 347 347 l 174 347 l 174 868 l 347 868 l 347 347 z "},"r":{"ha":1042,"x_min":174,"x_max":868,"o":"m 174 1042 l 347 1042 l 347 868 l 521 868 l 521 694 l 347 694 l 347 0 l 174 0 l 174 1042 m 521 868 l 521 1042 l 868 1042 l 868 868 l 521 868 z "},"s":{"ha":1215,"x_min":174,"x_max":1042,"o":"m 347 1042 l 868 1042 l 868 868 l 347 868 l 347 1042 m 347 868 l 347 694 l 174 694 l 174 868 l 347 868 m 347 694 l 868 694 l 868 521 l 347 521 l 347 694 m 868 521 l 1042 521 l 1042 174 l 868 174 l 868 521 m 868 174 l 868 0 l 347 0 l 347 174 l 868 174 m 347 174 l 174 174 l 174 347 l 347 347 l 347 174 z "},"t":{"ha":1042,"x_min":174,"x_max":868,"o":"m 174 1215 l 347 1215 l 347 868 l 868 868 l 868 694 l 347 694 l 347 174 l 174 174 l 174 1215 m 347 174 l 868 174 l 868 0 l 347 0 l 347 174 z "},"u":{"ha":1215,"x_min":174,"x_max":1042,"o":"m 174 1042 l 347 1042 l 347 174 l 174 174 l 174 1042 m 347 174 l 694 174 l 694 0 l 347 0 l 347 174 m 694 174 l 694 347 l 868 347 l 868 1042 l 1042 1042 l 1042 0 l 868 0 l 868 174 l 694 174 z "},"v":{"ha":1215,"x_min":174,"x_max":1042,"o":"m 174 1042 l 347 1042 l 347 521 l 174 521 l 174 1042 m 347 521 l 521 521 l 521 174 l 347 174 l 347 521 m 521 174 l 694 174 l 694 0 l 521 0 l 521 174 m 694 174 l 694 521 l 868 521 l 868 174 l 694 174 m 868 521 l 868 1042 l 1042 1042 l 1042 521 l 868 521 z "},"w":{"ha":1389,"x_min":174,"x_max":1215,"o":"m 1042 1042 l 1215 1042 l 1215 174 l 1042 174 l 1042 1042 m 1042 174 l 1042 0 l 694 0 l 694 174 l 1042 174 m 694 174 l 521 174 l 521 868 l 694 868 l 694 174 m 521 174 l 521 0 l 347 0 l 347 174 l 521 174 m 347 174 l 174 174 l 174 868 l 347 868 l 347 174 z "},"x":{"ha":1215,"x_min":174,"x_max":1042,"o":"m 174 1042 l 347 1042 l 347 868 l 174 868 l 174 1042 m 347 868 l 521 868 l 521 694 l 347 694 l 347 868 m 521 694 l 694 694 l 694 347 l 521 347 l 521 694 m 694 694 l 694 868 l 868 868 l 868 694 l 694 694 m 868 868 l 868 1042 l 1042 1042 l 1042 868 l 868 868 m 694 347 l 868 347 l 868 174 l 694 174 l 694 347 m 868 174 l 1042 174 l 1042 0 l 868 0 l 868 174 m 521 347 l 521 174 l 347 174 l 347 347 l 521 347 m 347 174 l 347 0 l 174 0 l 174 174 l 347 174 z "},"y":{"ha":1042,"x_min":174,"x_max":868,"o":"m 174 1042 l 347 1042 l 347 521 l 174 521 l 174 1042 m 347 521 l 694 521 l 694 174 l 521 174 l 521 347 l 347 347 l 347 521 m 694 521 l 694 1042 l 868 1042 l 868 521 l 694 521 m 521 174 l 521 0 l 174 0 l 174 174 l 521 174 z "},"z":{"ha":1042,"x_min":174,"x_max":868,"o":"m 174 1042 l 868 1042 l 868 694 l 694 694 l 694 868 l 174 868 l 174 1042 m 694 694 l 694 521 l 521 521 l 521 694 l 694 694 m 521 521 l 521 347 l 347 347 l 347 521 l 521 521 m 347 347 l 347 174 l 868 174 l 868 0 l 174 0 l 174 347 l 347 347 z "},"{":{"ha":1042,"x_min":174,"x_max":868,"o":"m 521 1215 l 694 1215 l 694 1042 l 521 1042 l 521 1215 m 694 1042 l 868 1042 l 868 868 l 694 868 l 694 1042 m 521 1042 l 521 694 l 347 694 l 347 1042 l 521 1042 m 347 694 l 347 347 l 174 347 l 174 694 l 347 694 m 347 347 l 521 347 l 521 0 l 347 0 l 347 347 m 521 0 l 694 0 l 694 -174 l 521 -174 l 521 0 m 694 0 l 694 174 l 868 174 l 868 0 l 694 0 z "},"|":{"ha":521,"x_min":174,"x_max":347,"o":"m 174 1215 l 347 1215 l 347 -174 l 174 -174 l 174 1215 z "},"}":{"ha":1042,"x_min":174,"x_max":868,"o":"m 347 1215 l 521 1215 l 521 1042 l 347 1042 l 347 1215 m 521 1042 l 694 1042 l 694 694 l 521 694 l 521 1042 m 694 694 l 868 694 l 868 347 l 694 347 l 694 694 m 694 347 l 694 0 l 521 0 l 521 347 l 694 347 m 521 0 l 521 -174 l 347 -174 l 347 0 l 521 0 m 347 0 l 174 0 l 174 174 l 347 174 l 347 0 m 347 1042 l 347 868 l 174 868 l 174 1042 l 347 1042 z "},"~":{"ha":1389,"x_min":174,"x_max":1215,"o":"m 347 694 l 694 694 l 694 521 l 347 521 l 347 694 m 694 521 l 1042 521 l 1042 347 l 694 347 l 694 521 m 1042 521 l 1042 694 l 1215 694 l 1215 521 l 1042 521 m 347 521 l 347 347 l 174 347 l 174 521 l 347 521 z "},"":{"ha":1389,"x_min":0,"x_max":0,"o":""},"€":{"ha":1563,"x_min":174,"x_max":1389,"o":"m 521 1042 l 1215 1042 l 1215 868 l 521 868 l 521 1042 m 1215 868 l 1389 868 l 1389 694 l 1215 694 l 1215 868 m 521 868 l 521 694 l 1042 694 l 1042 521 l 521 521 l 521 347 l 868 347 l 868 174 l 521 174 l 521 0 l 347 0 l 347 174 l 174 174 l 174 347 l 347 347 l 347 521 l 174 521 l 174 694 l 347 694 l 347 868 l 521 868 m 521 0 l 1215 0 l 1215 -174 l 521 -174 l 521 0 m 1215 0 l 1215 174 l 1389 174 l 1389 0 l 1215 0 z "},"‚":{"ha":694,"x_min":174,"x_max":521,"o":"m 347 347 l 521 347 l 521 0 l 347 0 l 347 347 m 347 0 l 347 -174 l 174 -174 l 174 0 l 347 0 z "},"ƒ":{"ha":868,"x_min":174,"x_max":694,"o":"m 521 1042 l 694 1042 l 694 868 l 521 868 l 521 1042 m 521 868 l 521 694 l 694 694 l 694 521 l 521 521 l 521 174 l 347 174 l 347 521 l 174 521 l 174 694 l 347 694 l 347 868 l 521 868 m 347 174 l 347 0 l 174 0 l 174 174 l 347 174 z "},"„":{"ha":1042,"x_min":174,"x_max":868,"o":"m 347 347 l 521 347 l 521 0 l 347 0 l 347 347 m 521 0 l 694 0 l 694 -174 l 521 -174 l 521 0 m 694 0 l 694 347 l 868 347 l 868 0 l 694 0 m 347 0 l 347 -174 l 174 -174 l 174 0 l 347 0 z "},"…":{"ha":1563,"x_min":174,"x_max":1389,"o":"m 174 174 l 347 174 l 347 0 l 174 0 l 174 174 m 694 174 l 868 174 l 868 0 l 694 0 l 694 174 m 1215 174 l 1389 174 l 1389 0 l 1215 0 l 1215 174 z "},"†":{"ha":868,"x_min":174,"x_max":694,"o":"m 347 1042 l 521 1042 l 521 868 l 694 868 l 694 694 l 521 694 l 521 0 l 347 0 l 347 694 l 174 694 l 174 868 l 347 868 l 347 1042 z "},"‡":{"ha":868,"x_min":174,"x_max":694,"o":"m 347 1042 l 521 1042 l 521 868 l 694 868 l 694 694 l 521 694 l 521 347 l 694 347 l 694 174 l 521 174 l 521 0 l 347 0 l 347 174 l 174 174 l 174 347 l 347 347 l 347 694 l 174 694 l 174 868 l 347 868 l 347 1042 z "},"ˆ":{"ha":1215,"x_min":174,"x_max":1042,"o":"m 521 1215 l 694 1215 l 694 1042 l 521 1042 l 521 1215 m 694 1042 l 868 1042 l 868 868 l 694 868 l 694 1042 m 868 868 l 1042 868 l 1042 694 l 868 694 l 868 868 m 521 1042 l 521 868 l 347 868 l 347 1042 l 521 1042 m 347 868 l 347 694 l 174 694 l 174 868 l 347 868 z "},"‰":{"ha":1736,"x_min":174,"x_max":1563,"o":"m 521 1215 l 694 1215 l 694 1042 l 521 1042 l 521 1215 m 694 1042 l 868 1042 l 868 694 l 694 694 l 694 1042 m 694 694 l 694 521 l 521 521 l 521 694 l 694 694 m 521 694 l 347 694 l 347 1042 l 521 1042 l 521 694 m 1215 1215 l 1389 1215 l 1389 1042 l 1215 1042 l 1215 1215 m 1215 1042 l 1215 694 l 1042 694 l 1042 1042 l 1215 1042 m 868 521 l 1042 521 l 1042 347 l 868 347 l 868 521 m 1042 347 l 1215 347 l 1215 0 l 1042 0 l 1042 347 m 1215 347 l 1215 521 l 1389 521 l 1389 347 l 1215 347 m 1389 347 l 1563 347 l 1563 0 l 1389 0 l 1389 347 m 1389 0 l 1389 -174 l 1215 -174 l 1215 0 l 1389 0 m 1042 0 l 1042 -174 l 868 -174 l 868 0 l 1042 0 m 868 0 l 694 0 l 694 347 l 868 347 l 868 0 m 347 347 l 521 347 l 521 0 l 347 0 l 347 347 m 347 0 l 347 -174 l 174 -174 l 174 0 l 347 0 z "},"Š":{"ha":1215,"x_min":174,"x_max":1042,"o":"m 174 1215 l 347 1215 l 347 1042 l 174 1042 l 174 1215 m 347 1042 l 868 1042 l 868 868 l 347 868 l 347 1042 m 868 1042 l 868 1215 l 1042 1215 l 1042 1042 l 868 1042 m 347 868 l 347 694 l 174 694 l 174 868 l 347 868 m 347 694 l 868 694 l 868 521 l 347 521 l 347 694 m 868 521 l 1042 521 l 1042 174 l 868 174 l 868 521 m 868 174 l 868 0 l 347 0 l 347 174 l 868 174 m 347 174 l 174 174 l 174 347 l 347 347 l 347 174 z "},"‹":{"ha":694,"x_min":174,"x_max":521,"o":"m 347 868 l 521 868 l 521 694 l 347 694 l 347 868 m 347 694 l 347 347 l 174 347 l 174 694 l 347 694 m 347 347 l 521 347 l 521 174 l 347 174 l 347 347 z "},"Œ":{"ha":1563,"x_min":174,"x_max":1389,"o":"m 347 1215 l 1389 1215 l 1389 1042 l 1042 1042 l 1042 694 l 1389 694 l 1389 521 l 1042 521 l 1042 174 l 1389 174 l 1389 0 l 868 0 l 868 174 l 694 174 l 694 347 l 868 347 l 868 1042 l 347 1042 l 347 1215 m 694 174 l 694 0 l 347 0 l 347 174 l 694 174 m 347 174 l 174 174 l 174 1042 l 347 1042 l 347 174 z "},"Ž":{"ha":1215,"x_min":174,"x_max":1042,"o":"m 174 1215 l 347 1215 l 347 1042 l 174 1042 l 174 1215 m 347 1042 l 868 1042 l 868 1215 l 1042 1215 l 1042 868 l 868 868 l 868 694 l 694 694 l 694 868 l 347 868 l 347 1042 m 694 694 l 694 521 l 521 521 l 521 694 l 694 694 m 521 521 l 521 347 l 347 347 l 347 521 l 521 521 m 347 347 l 347 174 l 1042 174 l 1042 0 l 174 0 l 174 347 l 347 347 z "},"‘":{"ha":694,"x_min":174,"x_max":521,"o":"m 174 1042 l 347 1042 l 347 694 l 174 694 l 174 1042 m 347 694 l 521 694 l 521 521 l 347 521 l 347 694 z "},"’":{"ha":694,"x_min":174,"x_max":521,"o":"m 174 1042 l 347 1042 l 347 868 l 174 868 l 174 1042 m 347 868 l 521 868 l 521 521 l 347 521 l 347 868 z "},"“":{"ha":1042,"x_min":174,"x_max":868,"o":"m 174 1042 l 347 1042 l 347 694 l 174 694 l 174 1042 m 347 694 l 521 694 l 521 521 l 347 521 l 347 694 m 521 694 l 521 1042 l 694 1042 l 694 694 l 521 694 m 694 694 l 868 694 l 868 521 l 694 521 l 694 694 z "},"”":{"ha":1042,"x_min":174,"x_max":868,"o":"m 174 1042 l 347 1042 l 347 868 l 174 868 l 174 1042 m 347 868 l 521 868 l 521 521 l 347 521 l 347 868 m 521 868 l 521 1042 l 694 1042 l 694 868 l 521 868 m 694 868 l 868 868 l 868 521 l 694 521 l 694 868 z "},"•":{"ha":1042,"x_min":174,"x_max":868,"o":"m 347 868 l 694 868 l 694 694 l 868 694 l 868 347 l 694 347 l 694 174 l 347 174 l 347 347 l 174 347 l 174 694 l 347 694 l 347 868 z "},"–":{"ha":868,"x_min":174,"x_max":694,"o":"m 174 868 l 694 868 l 694 694 l 174 694 l 174 868 z "},"—":{"ha":1215,"x_min":174,"x_max":1042,"o":"m 174 694 l 1042 694 l 1042 521 l 174 521 l 174 694 z "},"˜":{"ha":1215,"x_min":174,"x_max":1042,"o":"m 347 1042 l 694 1042 l 694 868 l 347 868 l 347 1042 m 694 868 l 868 868 l 868 694 l 694 694 l 694 868 m 868 868 l 868 1042 l 1042 1042 l 1042 868 l 868 868 m 347 868 l 347 694 l 174 694 l 174 868 l 347 868 z "},"™":{"ha":1736,"x_min":174,"x_max":1563,"o":"m 174 1042 l 868 1042 l 868 868 l 521 868 l 521 347 l 347 347 l 347 868 l 174 868 l 174 1042 m 868 868 l 1042 868 l 1042 694 l 868 694 l 868 868 m 1042 694 l 1215 694 l 1215 521 l 1042 521 l 1042 694 m 1215 694 l 1215 868 l 1389 868 l 1389 1042 l 1563 1042 l 1563 347 l 1389 347 l 1389 694 l 1215 694 m 868 694 l 868 347 l 694 347 l 694 694 l 868 694 z "},"š":{"ha":1215,"x_min":174,"x_max":1042,"o":"m 174 1215 l 347 1215 l 347 1042 l 174 1042 l 174 1215 m 347 1042 l 868 1042 l 868 868 l 347 868 l 347 1042 m 868 1042 l 868 1215 l 1042 1215 l 1042 1042 l 868 1042 m 347 868 l 347 694 l 174 694 l 174 868 l 347 868 m 347 694 l 868 694 l 868 521 l 347 521 l 347 694 m 868 521 l 1042 521 l 1042 174 l 868 174 l 868 521 m 868 174 l 868 0 l 347 0 l 347 174 l 868 174 m 347 174 l 174 174 l 174 347 l 347 347 l 347 174 z "},"›":{"ha":694,"x_min":174,"x_max":521,"o":"m 174 868 l 347 868 l 347 694 l 174 694 l 174 868 m 347 694 l 521 694 l 521 347 l 347 347 l 347 694 m 347 347 l 347 174 l 174 174 l 174 347 l 347 347 z "},"œ":{"ha":1563,"x_min":174,"x_max":1389,"o":"m 347 1042 l 1389 1042 l 1389 868 l 1042 868 l 1042 521 l 1389 521 l 1389 347 l 1042 347 l 1042 174 l 1389 174 l 1389 0 l 868 0 l 868 174 l 694 174 l 694 347 l 868 347 l 868 868 l 347 868 l 347 1042 m 694 174 l 694 0 l 347 0 l 347 174 l 694 174 m 347 174 l 174 174 l 174 868 l 347 868 l 347 174 z "},"ž":{"ha":1389,"x_min":174,"x_max":1215,"o":"m 174 1215 l 347 1215 l 347 1042 l 174 1042 l 174 1215 m 347 1042 l 1042 1042 l 1042 694 l 868 694 l 868 868 l 347 868 l 347 1042 m 1042 1042 l 1042 1215 l 1215 1215 l 1215 1042 l 1042 1042 m 868 694 l 868 521 l 694 521 l 694 694 l 868 694 m 694 521 l 694 347 l 521 347 l 521 521 l 694 521 m 521 347 l 521 174 l 1042 174 l 1042 0 l 347 0 l 347 347 l 521 347 z "},"Ÿ":{"ha":1215,"x_min":174,"x_max":1042,"o":"m 174 1215 l 347 1215 l 347 1042 l 174 1042 l 174 1215 m 868 1215 l 1042 1215 l 1042 1042 l 868 1042 l 868 1215 m 174 868 l 347 868 l 347 694 l 174 694 l 174 868 m 347 694 l 521 694 l 521 521 l 347 521 l 347 694 m 521 521 l 694 521 l 694 0 l 521 0 l 521 521 m 694 521 l 694 694 l 868 694 l 868 521 l 694 521 m 868 694 l 868 868 l 1042 868 l 1042 694 l 868 694 z "}," ":{"ha":1389,"x_min":0,"x_max":0,"o":""},"¡":{"ha":521,"x_min":174,"x_max":347,"o":"m 174 1215 l 347 1215 l 347 1042 l 174 1042 l 174 1215 m 174 868 l 347 868 l 347 0 l 174 0 l 174 868 z "},"¢":{"ha":1215,"x_min":174,"x_max":1042,"o":"m 521 1042 l 694 1042 l 694 868 l 868 868 l 868 694 l 694 694 l 694 174 l 868 174 l 868 0 l 694 0 l 694 -174 l 521 -174 l 521 0 l 347 0 l 347 174 l 521 174 l 521 694 l 347 694 l 347 868 l 521 868 l 521 1042 m 868 694 l 1042 694 l 1042 521 l 868 521 l 868 694 m 868 174 l 868 347 l 1042 347 l 1042 174 l 868 174 m 347 174 l 174 174 l 174 694 l 347 694 l 347 174 z "},"£":{"ha":1389,"x_min":174,"x_max":1215,"o":"m 521 1042 l 1042 1042 l 1042 868 l 521 868 l 521 1042 m 1042 868 l 1215 868 l 1215 694 l 1042 694 l 1042 868 m 521 868 l 521 347 l 868 347 l 868 174 l 521 174 l 521 0 l 1042 0 l 1042 -174 l 174 -174 l 174 0 l 347 0 l 347 174 l 174 174 l 174 347 l 347 347 l 347 868 l 521 868 m 1042 0 l 1042 174 l 1215 174 l 1215 0 l 1042 0 z "},"¤":{"ha":1389,"x_min":174,"x_max":1215,"o":"m 174 1042 l 347 1042 l 347 868 l 174 868 l 174 1042 m 1042 1042 l 1215 1042 l 1215 868 l 1042 868 l 1042 1042 m 521 868 l 868 868 l 868 694 l 521 694 l 521 868 m 868 694 l 1042 694 l 1042 347 l 868 347 l 868 694 m 868 347 l 868 174 l 521 174 l 521 347 l 868 347 m 521 347 l 347 347 l 347 694 l 521 694 l 521 347 m 174 174 l 347 174 l 347 0 l 174 0 l 174 174 m 1042 174 l 1215 174 l 1215 0 l 1042 0 l 1042 174 z "},"¥":{"ha":1215,"x_min":174,"x_max":1042,"o":"m 174 1042 l 347 1042 l 347 868 l 174 868 l 174 1042 m 347 868 l 521 868 l 521 694 l 347 694 l 347 868 m 521 694 l 694 694 l 694 521 l 1042 521 l 1042 347 l 694 347 l 694 174 l 1042 174 l 1042 0 l 694 0 l 694 -174 l 521 -174 l 521 0 l 174 0 l 174 174 l 521 174 l 521 347 l 174 347 l 174 521 l 521 521 l 521 694 m 694 694 l 694 868 l 868 868 l 868 694 l 694 694 m 868 868 l 868 1042 l 1042 1042 l 1042 868 l 868 868 z "},"¦":{"ha":521,"x_min":174,"x_max":347,"o":"m 174 1215 l 347 1215 l 347 694 l 174 694 l 174 1215 m 174 521 l 347 521 l 347 -174 l 174 -174 l 174 521 z "},"§":{"ha":1042,"x_min":174,"x_max":868,"o":"m 347 1215 l 694 1215 l 694 1042 l 347 1042 l 347 1215 m 347 1042 l 347 868 l 174 868 l 174 1042 l 347 1042 m 347 868 l 694 868 l 694 694 l 347 694 l 347 868 m 694 694 l 868 694 l 868 347 l 694 347 l 694 694 m 694 347 l 694 174 l 347 174 l 347 347 l 694 347 m 694 174 l 868 174 l 868 0 l 694 0 l 694 174 m 694 0 l 694 -174 l 347 -174 l 347 0 l 694 0 m 347 347 l 174 347 l 174 694 l 347 694 l 347 347 z "},"¨":{"ha":1042,"x_min":174,"x_max":868,"o":"m 174 1042 l 347 1042 l 347 868 l 174 868 l 174 1042 m 694 1042 l 868 1042 l 868 868 l 694 868 l 694 1042 z "},"©":{"ha":1736,"x_min":174,"x_max":1563,"o":"m 521 1215 l 1215 1215 l 1215 1042 l 521 1042 l 521 1215 m 1215 1042 l 1389 1042 l 1389 868 l 1215 868 l 1215 1042 m 1389 868 l 1563 868 l 1563 174 l 1389 174 l 1389 868 m 1389 174 l 1389 0 l 1215 0 l 1215 174 l 1389 174 m 1215 0 l 1215 -174 l 521 -174 l 521 0 l 1215 0 m 521 0 l 347 0 l 347 174 l 521 174 l 521 0 m 347 174 l 174 174 l 174 868 l 347 868 l 347 174 m 347 868 l 347 1042 l 521 1042 l 521 868 l 347 868 m 694 868 l 1042 868 l 1042 694 l 694 694 l 694 868 m 694 694 l 694 347 l 521 347 l 521 694 l 694 694 m 694 347 l 1042 347 l 1042 174 l 694 174 l 694 347 m 1042 347 l 1042 521 l 1215 521 l 1215 347 l 1042 347 z "},"ª":{"ha":1215,"x_min":174,"x_max":1042,"o":"m 521 1215 l 694 1215 l 694 1042 l 521 1042 l 521 1215 m 694 1042 l 868 1042 l 868 694 l 347 694 l 347 1042 l 521 1042 l 521 868 l 694 868 l 694 1042 m 174 521 l 1042 521 l 1042 347 l 174 347 l 174 521 z "},"«":{"ha":1042,"x_min":174,"x_max":868,"o":"m 347 868 l 521 868 l 521 694 l 347 694 l 347 868 m 521 694 l 694 694 l 694 347 l 521 347 l 521 694 m 694 694 l 694 868 l 868 868 l 868 694 l 694 694 m 694 347 l 868 347 l 868 174 l 694 174 l 694 347 m 521 347 l 521 174 l 347 174 l 347 347 l 521 347 m 347 347 l 174 347 l 174 694 l 347 694 l 347 347 z "},"¬":{"ha":1389,"x_min":174,"x_max":1215,"o":"m 174 694 l 1215 694 l 1215 174 l 1042 174 l 1042 521 l 174 521 l 174 694 z "},"­":{"ha":694,"x_min":174,"x_max":521,"o":"m 174 694 l 521 694 l 521 521 l 174 521 l 174 694 z "},"®":{"ha":1736,"x_min":174,"x_max":1563,"o":"m 347 1215 l 1389 1215 l 1389 1042 l 347 1042 l 347 1215 m 1389 1042 l 1563 1042 l 1563 0 l 1389 0 l 1389 1042 m 1389 0 l 1389 -174 l 347 -174 l 347 0 l 1389 0 m 347 0 l 174 0 l 174 1042 l 347 1042 l 347 0 m 694 868 l 1042 868 l 1042 694 l 694 694 l 694 868 m 1042 694 l 1215 694 l 1215 521 l 1042 521 l 1042 694 m 1042 521 l 1042 347 l 868 347 l 868 521 l 1042 521 m 1042 347 l 1215 347 l 1215 174 l 1042 174 l 1042 347 m 694 694 l 694 174 l 521 174 l 521 694 l 694 694 z "},"¯":{"ha":1389,"x_min":174,"x_max":1215,"o":"m 174 1215 l 1215 1215 l 1215 1042 l 174 1042 l 174 1215 z "},"°":{"ha":868,"x_min":174,"x_max":694,"o":"m 347 1042 l 521 1042 l 521 868 l 347 868 l 347 1042 m 521 868 l 694 868 l 694 521 l 521 521 l 521 868 m 521 521 l 521 347 l 347 347 l 347 521 l 521 521 m 347 521 l 174 521 l 174 868 l 347 868 l 347 521 z "},"±":{"ha":1215,"x_min":174,"x_max":1042,"o":"m 521 1042 l 694 1042 l 694 694 l 1042 694 l 1042 521 l 694 521 l 694 174 l 1042 174 l 1042 0 l 174 0 l 174 174 l 521 174 l 521 521 l 174 521 l 174 694 l 521 694 l 521 1042 z "},"²":{"ha":868,"x_min":174,"x_max":694,"o":"m 174 1215 l 521 1215 l 521 1042 l 174 1042 l 174 1215 m 521 1042 l 694 1042 l 694 868 l 521 868 l 521 1042 m 521 868 l 521 694 l 347 694 l 347 868 l 521 868 m 347 694 l 347 521 l 694 521 l 694 347 l 174 347 l 174 694 l 347 694 z "},"³":{"ha":868,"x_min":174,"x_max":694,"o":"m 174 1215 l 521 1215 l 521 1042 l 174 1042 l 174 1215 m 521 1042 l 694 1042 l 694 868 l 521 868 l 521 1042 m 521 868 l 521 694 l 347 694 l 347 868 l 521 868 m 521 694 l 694 694 l 694 521 l 521 521 l 521 694 m 521 521 l 521 347 l 174 347 l 174 521 l 521 521 z "},"´":{"ha":694,"x_min":174,"x_max":521,"o":"m 347 1215 l 521 1215 l 521 1042 l 347 1042 l 347 1215 m 347 1042 l 347 868 l 174 868 l 174 1042 l 347 1042 z "},"µ":{"ha":1389,"x_min":174,"x_max":1215,"o":"m 174 1042 l 347 1042 l 347 347 l 694 347 l 694 174 l 347 174 l 347 -174 l 174 -174 l 174 1042 m 694 347 l 694 521 l 868 521 l 868 1042 l 1042 1042 l 1042 174 l 868 174 l 868 347 l 694 347 m 1042 174 l 1215 174 l 1215 0 l 1042 0 l 1042 174 z "},"¶":{"ha":1215,"x_min":174,"x_max":1042,"o":"m 347 1215 l 1042 1215 l 1042 -174 l 868 -174 l 868 1042 l 694 1042 l 694 -174 l 521 -174 l 521 521 l 347 521 l 347 694 l 174 694 l 174 1042 l 347 1042 l 347 1215 z "},"·":{"ha":694,"x_min":174,"x_max":521,"o":"m 174 694 l 521 694 l 521 347 l 174 347 l 174 694 z "},"¸":{"ha":694,"x_min":174,"x_max":521,"o":"m 174 174 l 347 174 l 347 0 l 174 0 l 174 174 m 347 0 l 521 0 l 521 -174 l 347 -174 l 347 0 z "},"¹":{"ha":868,"x_min":174,"x_max":694,"o":"m 347 1215 l 521 1215 l 521 521 l 694 521 l 694 347 l 174 347 l 174 521 l 347 521 l 347 868 l 174 868 l 174 1042 l 347 1042 l 347 1215 z "},"º":{"ha":1215,"x_min":174,"x_max":1042,"o":"m 347 1215 l 868 1215 l 868 694 l 347 694 l 347 1215 m 521 1042 l 521 868 l 694 868 l 694 1042 l 521 1042 m 174 521 l 1042 521 l 1042 347 l 174 347 l 174 521 z "},"»":{"ha":1042,"x_min":174,"x_max":868,"o":"m 174 868 l 347 868 l 347 694 l 174 694 l 174 868 m 347 694 l 521 694 l 521 347 l 347 347 l 347 694 m 521 694 l 521 868 l 694 868 l 694 694 l 521 694 m 694 694 l 868 694 l 868 347 l 694 347 l 694 694 m 694 347 l 694 174 l 521 174 l 521 347 l 694 347 m 347 347 l 347 174 l 174 174 l 174 347 l 347 347 z "},"¼":{"ha":1736,"x_min":174,"x_max":1563,"o":"m 174 1215 l 521 1215 l 521 694 l 694 694 l 694 868 l 868 868 l 868 521 l 694 521 l 694 174 l 521 174 l 521 521 l 174 521 l 174 694 l 347 694 l 347 1042 l 174 1042 l 174 1215 m 868 868 l 868 1215 l 1042 1215 l 1042 868 l 868 868 m 521 174 l 521 -174 l 347 -174 l 347 174 l 521 174 m 1215 694 l 1389 694 l 1389 174 l 1563 174 l 1563 0 l 1389 0 l 1389 -174 l 1215 -174 l 1215 0 l 868 0 l 868 347 l 1042 347 l 1042 174 l 1215 174 l 1215 347 l 1042 347 l 1042 521 l 1215 521 l 1215 694 z "},"½":{"ha":1563,"x_min":174,"x_max":1389,"o":"m 174 1215 l 521 1215 l 521 694 l 694 694 l 694 868 l 868 868 l 868 521 l 694 521 l 694 174 l 521 174 l 521 521 l 174 521 l 174 694 l 347 694 l 347 1042 l 174 1042 l 174 1215 m 868 868 l 868 1215 l 1042 1215 l 1042 868 l 868 868 m 521 174 l 521 -174 l 347 -174 l 347 174 l 521 174 m 1042 694 l 1215 694 l 1215 521 l 1042 521 l 1042 694 m 1215 521 l 1389 521 l 1389 347 l 1215 347 l 1215 521 m 1215 347 l 1215 174 l 1042 174 l 1042 347 l 1215 347 m 1042 174 l 1042 0 l 1389 0 l 1389 -174 l 868 -174 l 868 174 l 1042 174 z "},"¾":{"ha":1736,"x_min":174,"x_max":1563,"o":"m 174 1215 l 521 1215 l 521 1042 l 174 1042 l 174 1215 m 521 1042 l 694 1042 l 694 868 l 521 868 l 521 1042 m 521 868 l 521 694 l 347 694 l 347 868 l 521 868 m 521 694 l 694 694 l 694 521 l 521 521 l 521 694 m 694 521 l 868 521 l 868 347 l 694 347 l 694 521 m 868 521 l 868 1215 l 1042 1215 l 1042 521 l 868 521 m 1042 521 l 1215 521 l 1215 694 l 1389 694 l 1389 174 l 1563 174 l 1563 0 l 1389 0 l 1389 -174 l 1215 -174 l 1215 0 l 868 0 l 868 347 l 1042 347 l 1042 174 l 1215 174 l 1215 347 l 1042 347 l 1042 521 m 694 347 l 694 174 l 521 174 l 521 347 l 694 347 m 521 174 l 521 -174 l 347 -174 l 347 174 l 521 174 m 521 347 l 174 347 l 174 521 l 521 521 l 521 347 z "},"¿":{"ha":1215,"x_min":174,"x_max":1042,"o":"m 521 1042 l 694 1042 l 694 868 l 521 868 l 521 1042 m 694 694 l 868 694 l 868 521 l 694 521 l 694 694 m 694 521 l 694 347 l 347 347 l 347 521 l 694 521 m 347 347 l 347 0 l 174 0 l 174 347 l 347 347 m 347 0 l 868 0 l 868 -174 l 347 -174 l 347 0 m 868 0 l 868 174 l 1042 174 l 1042 0 l 868 0 z "},"À":{"ha":1389,"x_min":174,"x_max":1215,"o":"m 174 1215 l 347 1215 l 347 1042 l 174 1042 l 174 1215 m 347 1042 l 521 1042 l 521 868 l 347 868 l 347 1042 m 521 868 l 1042 868 l 1042 694 l 521 694 l 521 868 m 1042 694 l 1215 694 l 1215 0 l 1042 0 l 1042 174 l 521 174 l 521 0 l 347 0 l 347 694 l 521 694 l 521 347 l 1042 347 l 1042 694 z "},"Á":{"ha":1389,"x_min":174,"x_max":1215,"o":"m 1042 1215 l 1215 1215 l 1215 1042 l 1042 1042 l 1042 1215 m 1042 1042 l 1042 868 l 868 868 l 868 1042 l 1042 1042 m 868 868 l 868 694 l 347 694 l 347 868 l 868 868 m 868 694 l 1042 694 l 1042 0 l 868 0 l 868 174 l 347 174 l 347 0 l 174 0 l 174 694 l 347 694 l 347 347 l 868 347 l 868 694 z "},"Â":{"ha":1563,"x_min":174,"x_max":1389,"o":"m 347 1215 l 1215 1215 l 1215 1042 l 347 1042 l 347 1215 m 1215 1042 l 1389 1042 l 1389 868 l 1215 868 l 1215 1042 m 347 1042 l 347 868 l 174 868 l 174 1042 l 347 1042 m 521 868 l 1042 868 l 1042 694 l 521 694 l 521 868 m 1042 694 l 1215 694 l 1215 0 l 1042 0 l 1042 174 l 521 174 l 521 0 l 347 0 l 347 694 l 521 694 l 521 347 l 1042 347 l 1042 694 z "},"Ã":{"ha":1736,"x_min":174,"x_max":1563,"o":"m 347 1215 l 1042 1215 l 1042 1042 l 347 1042 l 347 1215 m 1042 1042 l 1389 1042 l 1389 868 l 1042 868 l 1042 1042 m 1389 1042 l 1389 1215 l 1563 1215 l 1563 1042 l 1389 1042 m 1042 868 l 1042 694 l 521 694 l 521 868 l 1042 868 m 1042 694 l 1215 694 l 1215 0 l 1042 0 l 1042 174 l 521 174 l 521 0 l 347 0 l 347 694 l 521 694 l 521 347 l 1042 347 l 1042 694 m 347 1042 l 347 868 l 174 868 l 174 1042 l 347 1042 z "},"Ä":{"ha":1215,"x_min":174,"x_max":1042,"o":"m 347 1215 l 521 1215 l 521 1042 l 347 1042 l 347 1215 m 694 1215 l 868 1215 l 868 1042 l 694 1042 l 694 1215 m 347 868 l 868 868 l 868 694 l 347 694 l 347 868 m 868 694 l 1042 694 l 1042 0 l 868 0 l 868 174 l 347 174 l 347 0 l 174 0 l 174 694 l 347 694 l 347 347 l 868 347 l 868 694 z "},"Å":{"ha":1215,"x_min":174,"x_max":1042,"o":"m 347 1215 l 868 1215 l 868 694 l 347 694 l 347 1215 m 868 694 l 1042 694 l 1042 0 l 868 0 l 868 174 l 347 174 l 347 0 l 174 0 l 174 694 l 347 694 l 347 347 l 868 347 l 868 694 m 521 1042 l 521 868 l 694 868 l 694 1042 l 521 1042 z "},"Æ":{"ha":1563,"x_min":174,"x_max":1389,"o":"m 694 1215 l 1389 1215 l 1389 1042 l 1042 1042 l 1042 694 l 1389 694 l 1389 521 l 1042 521 l 1042 174 l 1389 174 l 1389 0 l 868 0 l 868 521 l 347 521 l 347 868 l 521 868 l 521 694 l 868 694 l 868 1042 l 694 1042 l 694 1215 m 347 521 l 347 0 l 174 0 l 174 521 l 347 521 m 521 868 l 521 1042 l 694 1042 l 694 868 l 521 868 z "},"Ç":{"ha":1215,"x_min":174,"x_max":1042,"o":"m 347 1215 l 868 1215 l 868 1042 l 347 1042 l 347 1215 m 868 1042 l 1042 1042 l 1042 868 l 868 868 l 868 1042 m 347 1042 l 347 174 l 174 174 l 174 1042 l 347 1042 m 347 174 l 868 174 l 868 0 l 347 0 l 347 174 m 868 174 l 868 347 l 1042 347 l 1042 174 l 868 174 m 868 0 l 1042 0 l 1042 -174 l 868 -174 l 868 0 z "},"È":{"ha":1389,"x_min":174,"x_max":1215,"o":"m 174 1215 l 347 1215 l 347 1042 l 174 1042 l 174 1215 m 347 1042 l 521 1042 l 521 868 l 1215 868 l 1215 694 l 521 694 l 521 521 l 1042 521 l 1042 347 l 521 347 l 521 174 l 1215 174 l 1215 0 l 347 0 l 347 1042 z "},"É":{"ha":1563,"x_min":174,"x_max":1389,"o":"m 1215 1215 l 1389 1215 l 1389 1042 l 1215 1042 l 1215 1215 m 1215 1042 l 1215 868 l 1042 868 l 1042 1042 l 1215 1042 m 1042 868 l 1042 694 l 347 694 l 347 521 l 868 521 l 868 347 l 347 347 l 347 174 l 1042 174 l 1042 0 l 174 0 l 174 868 l 1042 868 z "},"Ê":{"ha":1563,"x_min":174,"x_max":1389,"o":"m 347 1215 l 1215 1215 l 1215 1042 l 347 1042 l 347 1215 m 1215 1042 l 1389 1042 l 1389 868 l 1215 868 l 1215 1042 m 347 1042 l 347 868 l 174 868 l 174 1042 l 347 1042 m 521 868 l 1042 868 l 1042 694 l 694 694 l 694 521 l 1042 521 l 1042 347 l 694 347 l 694 174 l 1042 174 l 1042 0 l 521 0 l 521 868 z "},"Ë":{"ha":1215,"x_min":174,"x_max":1042,"o":"m 347 1215 l 521 1215 l 521 1042 l 347 1042 l 347 1215 m 694 1215 l 868 1215 l 868 1042 l 694 1042 l 694 1215 m 174 868 l 1042 868 l 1042 694 l 347 694 l 347 521 l 868 521 l 868 347 l 347 347 l 347 174 l 1042 174 l 1042 0 l 174 0 l 174 868 z "},"Ì":{"ha":868,"x_min":174,"x_max":694,"o":"m 174 1215 l 347 1215 l 347 1042 l 174 1042 l 174 1215 m 347 1042 l 521 1042 l 521 868 l 347 868 l 347 1042 m 347 694 l 521 694 l 521 174 l 694 174 l 694 0 l 174 0 l 174 174 l 347 174 l 347 694 z "},"Í":{"ha":868,"x_min":174,"x_max":694,"o":"m 521 1215 l 694 1215 l 694 1042 l 521 1042 l 521 1215 m 521 1042 l 521 868 l 347 868 l 347 1042 l 521 1042 m 347 694 l 521 694 l 521 174 l 694 174 l 694 0 l 174 0 l 174 174 l 347 174 l 347 694 z "},"Î":{"ha":1215,"x_min":174,"x_max":1042,"o":"m 347 1215 l 868 1215 l 868 1042 l 347 1042 l 347 1215 m 868 1042 l 1042 1042 l 1042 868 l 868 868 l 868 1042 m 347 1042 l 347 868 l 174 868 l 174 1042 l 347 1042 m 521 868 l 694 868 l 694 174 l 868 174 l 868 0 l 347 0 l 347 174 l 521 174 l 521 868 z "},"Ï":{"ha":868,"x_min":174,"x_max":694,"o":"m 174 1215 l 347 1215 l 347 1042 l 174 1042 l 174 1215 m 521 1215 l 694 1215 l 694 1042 l 521 1042 l 521 1215 m 347 694 l 521 694 l 521 174 l 694 174 l 694 0 l 174 0 l 174 174 l 347 174 l 347 694 z "},"Ð":{"ha":1389,"x_min":174,"x_max":1215,"o":"m 174 1215 l 1042 1215 l 1042 1042 l 521 1042 l 521 521 l 694 521 l 694 347 l 521 347 l 521 174 l 1042 174 l 1042 0 l 347 0 l 347 347 l 174 347 l 174 521 l 347 521 l 347 1042 l 174 1042 l 174 1215 m 1042 1042 l 1215 1042 l 1215 174 l 1042 174 l 1042 1042 z "},"Ñ":{"ha":1736,"x_min":174,"x_max":1563,"o":"m 347 1215 l 1042 1215 l 1042 1042 l 347 1042 l 347 1215 m 1042 1042 l 1389 1042 l 1389 868 l 1042 868 l 1042 1042 m 1389 1042 l 1389 1215 l 1563 1215 l 1563 1042 l 1389 1042 m 347 1042 l 347 868 l 174 868 l 174 1042 l 347 1042 m 521 868 l 694 868 l 694 694 l 868 694 l 868 521 l 694 521 l 694 0 l 521 0 l 521 868 m 868 521 l 1042 521 l 1042 694 l 1215 694 l 1215 0 l 1042 0 l 1042 347 l 868 347 l 868 521 z "},"Ò":{"ha":1389,"x_min":174,"x_max":1215,"o":"m 174 1215 l 347 1215 l 347 1042 l 174 1042 l 174 1215 m 347 1042 l 521 1042 l 521 868 l 347 868 l 347 1042 m 521 868 l 1042 868 l 1042 694 l 521 694 l 521 868 m 1042 694 l 1215 694 l 1215 174 l 1042 174 l 1042 694 m 1042 174 l 1042 0 l 521 0 l 521 174 l 1042 174 m 521 174 l 347 174 l 347 694 l 521 694 l 521 174 z "},"Ó":{"ha":1389,"x_min":174,"x_max":1215,"o":"m 1042 1215 l 1215 1215 l 1215 1042 l 1042 1042 l 1042 1215 m 1042 1042 l 1042 868 l 868 868 l 868 1042 l 1042 1042 m 868 868 l 868 694 l 347 694 l 347 868 l 868 868 m 868 694 l 1042 694 l 1042 174 l 868 174 l 868 694 m 868 174 l 868 0 l 347 0 l 347 174 l 868 174 m 347 174 l 174 174 l 174 694 l 347 694 l 347 174 z "},"Ô":{"ha":1563,"x_min":174,"x_max":1389,"o":"m 347 1215 l 1215 1215 l 1215 1042 l 347 1042 l 347 1215 m 1215 1042 l 1389 1042 l 1389 868 l 1215 868 l 1215 1042 m 347 1042 l 347 868 l 174 868 l 174 1042 l 347 1042 m 521 868 l 1042 868 l 1042 694 l 521 694 l 521 868 m 1042 694 l 1215 694 l 1215 174 l 1042 174 l 1042 694 m 1042 174 l 1042 0 l 521 0 l 521 174 l 1042 174 m 521 174 l 347 174 l 347 694 l 521 694 l 521 174 z "},"Õ":{"ha":1736,"x_min":174,"x_max":1563,"o":"m 347 1215 l 1042 1215 l 1042 1042 l 347 1042 l 347 1215 m 1042 1042 l 1389 1042 l 1389 868 l 1042 868 l 1042 1042 m 1389 1042 l 1389 1215 l 1563 1215 l 1563 1042 l 1389 1042 m 1042 868 l 1042 694 l 521 694 l 521 868 l 1042 868 m 1042 694 l 1215 694 l 1215 174 l 1042 174 l 1042 694 m 1042 174 l 1042 0 l 521 0 l 521 174 l 1042 174 m 521 174 l 347 174 l 347 694 l 521 694 l 521 174 m 347 1042 l 347 868 l 174 868 l 174 1042 l 347 1042 z "},"Ö":{"ha":1215,"x_min":174,"x_max":1042,"o":"m 347 1215 l 521 1215 l 521 1042 l 347 1042 l 347 1215 m 694 1215 l 868 1215 l 868 1042 l 694 1042 l 694 1215 m 347 868 l 868 868 l 868 694 l 347 694 l 347 868 m 868 694 l 1042 694 l 1042 174 l 868 174 l 868 694 m 868 174 l 868 0 l 347 0 l 347 174 l 868 174 m 347 174 l 174 174 l 174 694 l 347 694 l 347 174 z "},"×":{"ha":1215,"x_min":174,"x_max":1042,"o":"m 174 1042 l 347 1042 l 347 868 l 174 868 l 174 1042 m 347 868 l 521 868 l 521 694 l 347 694 l 347 868 m 521 694 l 694 694 l 694 521 l 521 521 l 521 694 m 694 694 l 694 868 l 868 868 l 868 694 l 694 694 m 868 868 l 868 1042 l 1042 1042 l 1042 868 l 868 868 m 694 521 l 868 521 l 868 347 l 694 347 l 694 521 m 868 347 l 1042 347 l 1042 174 l 868 174 l 868 347 m 521 521 l 521 347 l 347 347 l 347 521 l 521 521 m 347 347 l 347 174 l 174 174 l 174 347 l 347 347 z "},"Ø":{"ha":1389,"x_min":174,"x_max":1215,"o":"m 347 1215 l 868 1215 l 868 1042 l 347 1042 l 347 1215 m 868 1042 l 1042 1042 l 1042 868 l 868 868 l 868 1042 m 1042 1042 l 1042 1215 l 1215 1215 l 1215 1042 l 1042 1042 m 1042 868 l 1215 868 l 1215 174 l 1042 174 l 1042 868 m 1042 174 l 1042 0 l 521 0 l 521 174 l 1042 174 m 521 174 l 347 174 l 347 347 l 521 347 l 521 174 m 347 174 l 347 0 l 174 0 l 174 174 l 347 174 m 347 347 l 174 347 l 174 1042 l 347 1042 l 347 347 m 521 347 l 521 694 l 694 694 l 694 347 l 521 347 m 694 694 l 694 868 l 868 868 l 868 694 l 694 694 z "},"Ù":{"ha":1389,"x_min":174,"x_max":1215,"o":"m 174 1215 l 347 1215 l 347 1042 l 174 1042 l 174 1215 m 347 1042 l 521 1042 l 521 174 l 347 174 l 347 1042 m 521 174 l 1042 174 l 1042 0 l 521 0 l 521 174 m 1042 174 l 1042 868 l 1215 868 l 1215 174 l 1042 174 z "},"Ú":{"ha":1389,"x_min":174,"x_max":1215,"o":"m 1042 1215 l 1215 1215 l 1215 1042 l 1042 1042 l 1042 1215 m 1042 1042 l 1042 174 l 868 174 l 868 1042 l 1042 1042 m 868 174 l 868 0 l 347 0 l 347 174 l 868 174 m 347 174 l 174 174 l 174 868 l 347 868 l 347 174 z "},"Û":{"ha":1563,"x_min":174,"x_max":1389,"o":"m 347 1215 l 1215 1215 l 1215 1042 l 347 1042 l 347 1215 m 1215 1042 l 1389 1042 l 1389 868 l 1215 868 l 1215 1042 m 347 1042 l 347 868 l 174 868 l 174 1042 l 347 1042 m 347 694 l 521 694 l 521 174 l 347 174 l 347 694 m 521 174 l 1042 174 l 1042 0 l 521 0 l 521 174 m 1042 174 l 1042 694 l 1215 694 l 1215 174 l 1042 174 z "},"Ü":{"ha":1215,"x_min":174,"x_max":1042,"o":"m 347 1215 l 521 1215 l 521 1042 l 347 1042 l 347 1215 m 694 1215 l 868 1215 l 868 1042 l 694 1042 l 694 1215 m 174 868 l 347 868 l 347 174 l 174 174 l 174 868 m 347 174 l 868 174 l 868 0 l 347 0 l 347 174 m 868 174 l 868 868 l 1042 868 l 1042 174 l 868 174 z "},"Ý":{"ha":1215,"x_min":174,"x_max":1042,"o":"m 174 1215 l 347 1215 l 347 521 l 174 521 l 174 1215 m 347 521 l 521 521 l 521 347 l 347 347 l 347 521 m 521 347 l 694 347 l 694 0 l 521 0 l 521 347 m 694 347 l 694 521 l 868 521 l 868 347 l 694 347 m 868 521 l 868 868 l 1042 868 l 1042 521 l 868 521 m 694 1215 l 868 1215 l 868 1042 l 694 1042 l 694 1215 m 694 1042 l 694 868 l 521 868 l 521 1042 l 694 1042 z "},"Þ":{"ha":1042,"x_min":174,"x_max":868,"o":"m 174 1042 l 347 1042 l 347 868 l 694 868 l 694 694 l 347 694 l 347 347 l 694 347 l 694 174 l 347 174 l 347 0 l 174 0 l 174 1042 m 694 694 l 868 694 l 868 347 l 694 347 l 694 694 z "},"ß":{"ha":1215,"x_min":174,"x_max":1042,"o":"m 347 1215 l 694 1215 l 694 1042 l 347 1042 l 347 1215 m 694 1042 l 868 1042 l 868 694 l 1042 694 l 1042 174 l 868 174 l 868 521 l 521 521 l 521 694 l 694 694 l 694 1042 m 868 174 l 868 0 l 521 0 l 521 174 l 868 174 m 347 1042 l 347 -174 l 174 -174 l 174 1042 l 347 1042 z "},"à":{"ha":1389,"x_min":174,"x_max":1215,"o":"m 174 1215 l 347 1215 l 347 1042 l 174 1042 l 174 1215 m 347 1042 l 521 1042 l 521 868 l 347 868 l 347 1042 m 521 868 l 1042 868 l 1042 694 l 521 694 l 521 868 m 1042 694 l 1215 694 l 1215 0 l 1042 0 l 1042 174 l 521 174 l 521 0 l 347 0 l 347 694 l 521 694 l 521 347 l 1042 347 l 1042 694 z "},"á":{"ha":1389,"x_min":174,"x_max":1215,"o":"m 1042 1215 l 1215 1215 l 1215 1042 l 1042 1042 l 1042 1215 m 1042 1042 l 1042 868 l 868 868 l 868 1042 l 1042 1042 m 868 868 l 868 694 l 347 694 l 347 868 l 868 868 m 868 694 l 1042 694 l 1042 0 l 868 0 l 868 174 l 347 174 l 347 0 l 174 0 l 174 694 l 347 694 l 347 347 l 868 347 l 868 694 z "},"â":{"ha":1563,"x_min":174,"x_max":1389,"o":"m 347 1215 l 1215 1215 l 1215 1042 l 347 1042 l 347 1215 m 1215 1042 l 1389 1042 l 1389 868 l 1215 868 l 1215 1042 m 347 1042 l 347 868 l 174 868 l 174 1042 l 347 1042 m 521 868 l 1042 868 l 1042 694 l 521 694 l 521 868 m 1042 694 l 1215 694 l 1215 0 l 1042 0 l 1042 174 l 521 174 l 521 0 l 347 0 l 347 694 l 521 694 l 521 347 l 1042 347 l 1042 694 z "},"ã":{"ha":1736,"x_min":174,"x_max":1563,"o":"m 347 1215 l 1042 1215 l 1042 1042 l 347 1042 l 347 1215 m 1042 1042 l 1389 1042 l 1389 868 l 1042 868 l 1042 1042 m 1389 1042 l 1389 1215 l 1563 1215 l 1563 1042 l 1389 1042 m 1042 868 l 1042 694 l 521 694 l 521 868 l 1042 868 m 1042 694 l 1215 694 l 1215 0 l 1042 0 l 1042 174 l 521 174 l 521 0 l 347 0 l 347 694 l 521 694 l 521 347 l 1042 347 l 1042 694 m 347 1042 l 347 868 l 174 868 l 174 1042 l 347 1042 z "},"ä":{"ha":1215,"x_min":174,"x_max":1042,"o":"m 347 1215 l 521 1215 l 521 1042 l 347 1042 l 347 1215 m 694 1215 l 868 1215 l 868 1042 l 694 1042 l 694 1215 m 347 868 l 868 868 l 868 694 l 347 694 l 347 868 m 868 694 l 1042 694 l 1042 0 l 868 0 l 868 174 l 347 174 l 347 0 l 174 0 l 174 694 l 347 694 l 347 347 l 868 347 l 868 694 z "},"å":{"ha":1215,"x_min":174,"x_max":1042,"o":"m 347 1215 l 868 1215 l 868 694 l 347 694 l 347 1215 m 868 694 l 1042 694 l 1042 0 l 868 0 l 868 174 l 347 174 l 347 0 l 174 0 l 174 694 l 347 694 l 347 347 l 868 347 l 868 694 m 521 1042 l 521 868 l 694 868 l 694 1042 l 521 1042 z "},"æ":{"ha":1563,"x_min":174,"x_max":1389,"o":"m 694 1042 l 1389 1042 l 1389 868 l 1042 868 l 1042 521 l 1389 521 l 1389 347 l 1042 347 l 1042 174 l 1389 174 l 1389 0 l 868 0 l 868 347 l 347 347 l 347 694 l 521 694 l 521 521 l 868 521 l 868 868 l 694 868 l 694 1042 m 347 347 l 347 0 l 174 0 l 174 347 l 347 347 m 521 694 l 521 868 l 694 868 l 694 694 l 521 694 z "},"ç":{"ha":1215,"x_min":174,"x_max":1042,"o":"m 347 1042 l 868 1042 l 868 868 l 347 868 l 347 1042 m 868 868 l 1042 868 l 1042 694 l 868 694 l 868 868 m 347 868 l 347 174 l 174 174 l 174 868 l 347 868 m 347 174 l 868 174 l 868 0 l 347 0 l 347 174 m 868 174 l 868 347 l 1042 347 l 1042 174 l 868 174 m 868 0 l 1042 0 l 1042 -174 l 868 -174 l 868 0 z "},"è":{"ha":1389,"x_min":174,"x_max":1215,"o":"m 174 1215 l 347 1215 l 347 1042 l 174 1042 l 174 1215 m 347 1042 l 521 1042 l 521 868 l 1215 868 l 1215 694 l 521 694 l 521 521 l 1042 521 l 1042 347 l 521 347 l 521 174 l 1215 174 l 1215 0 l 347 0 l 347 1042 z "},"é":{"ha":1563,"x_min":174,"x_max":1389,"o":"m 1215 1215 l 1389 1215 l 1389 1042 l 1215 1042 l 1215 1215 m 1215 1042 l 1215 868 l 1042 868 l 1042 1042 l 1215 1042 m 1042 868 l 1042 694 l 347 694 l 347 521 l 868 521 l 868 347 l 347 347 l 347 174 l 1042 174 l 1042 0 l 174 0 l 174 868 l 1042 868 z "},"ê":{"ha":1563,"x_min":174,"x_max":1389,"o":"m 347 1215 l 1215 1215 l 1215 1042 l 347 1042 l 347 1215 m 1215 1042 l 1389 1042 l 1389 868 l 1215 868 l 1215 1042 m 347 1042 l 347 868 l 174 868 l 174 1042 l 347 1042 m 521 868 l 1042 868 l 1042 694 l 694 694 l 694 521 l 1042 521 l 1042 347 l 694 347 l 694 174 l 1042 174 l 1042 0 l 521 0 l 521 868 z "},"ë":{"ha":1215,"x_min":174,"x_max":1042,"o":"m 347 1215 l 521 1215 l 521 1042 l 347 1042 l 347 1215 m 694 1215 l 868 1215 l 868 1042 l 694 1042 l 694 1215 m 174 868 l 1042 868 l 1042 694 l 347 694 l 347 521 l 868 521 l 868 347 l 347 347 l 347 174 l 1042 174 l 1042 0 l 174 0 l 174 868 z "},"ì":{"ha":868,"x_min":174,"x_max":694,"o":"m 174 1215 l 347 1215 l 347 1042 l 174 1042 l 174 1215 m 347 1042 l 521 1042 l 521 868 l 347 868 l 347 1042 m 347 694 l 521 694 l 521 174 l 694 174 l 694 0 l 174 0 l 174 174 l 347 174 l 347 694 z "},"í":{"ha":868,"x_min":174,"x_max":694,"o":"m 521 1215 l 694 1215 l 694 1042 l 521 1042 l 521 1215 m 521 1042 l 521 868 l 347 868 l 347 1042 l 521 1042 m 347 694 l 521 694 l 521 174 l 694 174 l 694 0 l 174 0 l 174 174 l 347 174 l 347 694 z "},"î":{"ha":1215,"x_min":174,"x_max":1042,"o":"m 347 1215 l 868 1215 l 868 1042 l 347 1042 l 347 1215 m 868 1042 l 1042 1042 l 1042 868 l 868 868 l 868 1042 m 347 1042 l 347 868 l 174 868 l 174 1042 l 347 1042 m 521 868 l 694 868 l 694 174 l 868 174 l 868 0 l 347 0 l 347 174 l 521 174 l 521 868 z "},"ï":{"ha":868,"x_min":174,"x_max":694,"o":"m 174 1215 l 347 1215 l 347 1042 l 174 1042 l 174 1215 m 521 1215 l 694 1215 l 694 1042 l 521 1042 l 521 1215 m 347 694 l 521 694 l 521 174 l 694 174 l 694 0 l 174 0 l 174 174 l 347 174 l 347 694 z "},"ð":{"ha":1389,"x_min":174,"x_max":1215,"o":"m 868 1215 l 1042 1215 l 1042 868 l 868 868 l 868 1215 m 1042 868 l 1215 868 l 1215 694 l 1042 694 l 1042 868 m 1042 694 l 1042 174 l 868 174 l 868 694 l 1042 694 m 868 174 l 868 0 l 347 0 l 347 174 l 868 174 m 347 174 l 174 174 l 174 694 l 347 694 l 347 174 m 347 694 l 347 868 l 868 868 l 868 694 l 347 694 z "},"ñ":{"ha":1736,"x_min":174,"x_max":1563,"o":"m 347 1215 l 1042 1215 l 1042 1042 l 347 1042 l 347 1215 m 1042 1042 l 1389 1042 l 1389 868 l 1042 868 l 1042 1042 m 1389 1042 l 1389 1215 l 1563 1215 l 1563 1042 l 1389 1042 m 347 1042 l 347 868 l 174 868 l 174 1042 l 347 1042 m 521 868 l 694 868 l 694 694 l 868 694 l 868 521 l 694 521 l 694 0 l 521 0 l 521 868 m 868 521 l 1042 521 l 1042 694 l 1215 694 l 1215 0 l 1042 0 l 1042 347 l 868 347 l 868 521 z "},"ò":{"ha":1389,"x_min":174,"x_max":1215,"o":"m 174 1215 l 347 1215 l 347 1042 l 174 1042 l 174 1215 m 347 1042 l 521 1042 l 521 868 l 347 868 l 347 1042 m 521 868 l 1042 868 l 1042 694 l 521 694 l 521 868 m 1042 694 l 1215 694 l 1215 174 l 1042 174 l 1042 694 m 1042 174 l 1042 0 l 521 0 l 521 174 l 1042 174 m 521 174 l 347 174 l 347 694 l 521 694 l 521 174 z "},"ó":{"ha":1389,"x_min":174,"x_max":1215,"o":"m 1042 1215 l 1215 1215 l 1215 1042 l 1042 1042 l 1042 1215 m 1042 1042 l 1042 868 l 868 868 l 868 1042 l 1042 1042 m 868 868 l 868 694 l 347 694 l 347 868 l 868 868 m 868 694 l 1042 694 l 1042 174 l 868 174 l 868 694 m 868 174 l 868 0 l 347 0 l 347 174 l 868 174 m 347 174 l 174 174 l 174 694 l 347 694 l 347 174 z "},"ô":{"ha":1563,"x_min":174,"x_max":1389,"o":"m 347 1215 l 1215 1215 l 1215 1042 l 347 1042 l 347 1215 m 1215 1042 l 1389 1042 l 1389 868 l 1215 868 l 1215 1042 m 347 1042 l 347 868 l 174 868 l 174 1042 l 347 1042 m 521 868 l 1042 868 l 1042 694 l 521 694 l 521 868 m 1042 694 l 1215 694 l 1215 174 l 1042 174 l 1042 694 m 1042 174 l 1042 0 l 521 0 l 521 174 l 1042 174 m 521 174 l 347 174 l 347 694 l 521 694 l 521 174 z "},"õ":{"ha":1736,"x_min":174,"x_max":1563,"o":"m 347 1215 l 1042 1215 l 1042 1042 l 347 1042 l 347 1215 m 1042 1042 l 1389 1042 l 1389 868 l 1042 868 l 1042 1042 m 1389 1042 l 1389 1215 l 1563 1215 l 1563 1042 l 1389 1042 m 1042 868 l 1042 694 l 521 694 l 521 868 l 1042 868 m 1042 694 l 1215 694 l 1215 174 l 1042 174 l 1042 694 m 1042 174 l 1042 0 l 521 0 l 521 174 l 1042 174 m 521 174 l 347 174 l 347 694 l 521 694 l 521 174 m 347 1042 l 347 868 l 174 868 l 174 1042 l 347 1042 z "},"ö":{"ha":1215,"x_min":174,"x_max":1042,"o":"m 347 1215 l 521 1215 l 521 1042 l 347 1042 l 347 1215 m 694 1215 l 868 1215 l 868 1042 l 694 1042 l 694 1215 m 347 868 l 868 868 l 868 694 l 347 694 l 347 868 m 868 694 l 1042 694 l 1042 174 l 868 174 l 868 694 m 868 174 l 868 0 l 347 0 l 347 174 l 868 174 m 347 174 l 174 174 l 174 694 l 347 694 l 347 174 z "},"÷":{"ha":1215,"x_min":174,"x_max":1042,"o":"m 521 1042 l 694 1042 l 694 868 l 521 868 l 521 1042 m 174 694 l 1042 694 l 1042 521 l 174 521 l 174 694 m 521 347 l 694 347 l 694 174 l 521 174 l 521 347 z "},"ø":{"ha":1389,"x_min":174,"x_max":1215,"o":"m 347 1042 l 868 1042 l 868 868 l 347 868 l 347 1042 m 868 868 l 1042 868 l 1042 694 l 868 694 l 868 868 m 1042 868 l 1042 1042 l 1215 1042 l 1215 868 l 1042 868 m 1042 694 l 1215 694 l 1215 174 l 1042 174 l 1042 694 m 1042 174 l 1042 0 l 521 0 l 521 174 l 1042 174 m 521 174 l 347 174 l 347 347 l 521 347 l 521 174 m 347 174 l 347 0 l 174 0 l 174 174 l 347 174 m 347 347 l 174 347 l 174 868 l 347 868 l 347 347 m 521 347 l 521 521 l 694 521 l 694 347 l 521 347 m 694 521 l 694 694 l 868 694 l 868 521 l 694 521 z "},"ù":{"ha":1389,"x_min":174,"x_max":1215,"o":"m 174 1215 l 347 1215 l 347 1042 l 174 1042 l 174 1215 m 347 1042 l 521 1042 l 521 174 l 347 174 l 347 1042 m 521 174 l 1042 174 l 1042 0 l 521 0 l 521 174 m 1042 174 l 1042 868 l 1215 868 l 1215 174 l 1042 174 z "},"ú":{"ha":1389,"x_min":174,"x_max":1215,"o":"m 1042 1215 l 1215 1215 l 1215 1042 l 1042 1042 l 1042 1215 m 1042 1042 l 1042 174 l 868 174 l 868 1042 l 1042 1042 m 868 174 l 868 0 l 347 0 l 347 174 l 868 174 m 347 174 l 174 174 l 174 868 l 347 868 l 347 174 z "},"û":{"ha":1563,"x_min":174,"x_max":1389,"o":"m 347 1215 l 1215 1215 l 1215 1042 l 347 1042 l 347 1215 m 1215 1042 l 1389 1042 l 1389 868 l 1215 868 l 1215 1042 m 347 1042 l 347 868 l 174 868 l 174 1042 l 347 1042 m 347 694 l 521 694 l 521 174 l 347 174 l 347 694 m 521 174 l 1042 174 l 1042 0 l 521 0 l 521 174 m 1042 174 l 1042 694 l 1215 694 l 1215 174 l 1042 174 z "},"ü":{"ha":1215,"x_min":174,"x_max":1042,"o":"m 347 1215 l 521 1215 l 521 1042 l 347 1042 l 347 1215 m 694 1215 l 868 1215 l 868 1042 l 694 1042 l 694 1215 m 174 868 l 347 868 l 347 174 l 174 174 l 174 868 m 347 174 l 868 174 l 868 0 l 347 0 l 347 174 m 868 174 l 868 868 l 1042 868 l 1042 174 l 868 174 z "},"ý":{"ha":1215,"x_min":174,"x_max":1042,"o":"m 694 1215 l 868 1215 l 868 1042 l 694 1042 l 694 1215 m 694 1042 l 694 868 l 521 868 l 521 1042 l 694 1042 m 174 868 l 347 868 l 347 521 l 174 521 l 174 868 m 347 521 l 521 521 l 521 347 l 347 347 l 347 521 m 521 347 l 694 347 l 694 0 l 521 0 l 521 347 m 694 347 l 694 521 l 868 521 l 868 347 l 694 347 m 868 521 l 868 868 l 1042 868 l 1042 521 l 868 521 z "},"þ":{"ha":1042,"x_min":174,"x_max":868,"o":"m 174 1042 l 347 1042 l 347 868 l 694 868 l 694 694 l 347 694 l 347 347 l 694 347 l 694 174 l 347 174 l 347 0 l 174 0 l 174 1042 m 694 694 l 868 694 l 868 347 l 694 347 l 694 694 z "},"ÿ":{"ha":1215,"x_min":174,"x_max":1042,"o":"m 347 1215 l 521 1215 l 521 1042 l 347 1042 l 347 1215 m 694 1215 l 868 1215 l 868 1042 l 694 1042 l 694 1215 m 174 868 l 347 868 l 347 521 l 174 521 l 174 868 m 347 521 l 521 521 l 521 347 l 347 347 l 347 521 m 521 347 l 694 347 l 694 0 l 521 0 l 521 347 m 694 347 l 694 521 l 868 521 l 868 347 l 694 347 m 868 521 l 868 868 l 1042 868 l 1042 521 l 868 521 z "},"ŉ":{"ha":1563,"x_min":174,"x_max":1389,"o":"m 347 1215 l 521 1215 l 521 1042 l 347 1042 l 347 1215 m 347 1042 l 347 868 l 174 868 l 174 1042 l 347 1042 m 868 1042 l 1215 1042 l 1215 868 l 868 868 l 868 1042 m 1215 868 l 1389 868 l 1389 0 l 1215 0 l 1215 868 m 868 868 l 868 694 l 694 694 l 694 0 l 521 0 l 521 868 l 868 868 z "},"Ŀ":{"ha":1042,"x_min":174,"x_max":868,"o":"m 174 1215 l 347 1215 l 347 174 l 868 174 l 868 0 l 174 0 l 174 1215 m 694 868 l 868 868 l 868 694 l 694 694 l 694 868 z "},"ŀ":{"ha":1042,"x_min":174,"x_max":868,"o":"m 174 1042 l 347 1042 l 347 174 l 174 174 l 174 1042 m 347 174 l 694 174 l 694 0 l 347 0 l 347 174 m 694 868 l 868 868 l 868 694 l 694 694 l 694 868 z "},"Ĳ":{"ha":1736,"x_min":174,"x_max":1563,"o":"m 174 1215 l 694 1215 l 694 1042 l 521 1042 l 521 174 l 694 174 l 694 0 l 174 0 l 174 174 l 347 174 l 347 1042 l 174 1042 l 174 1215 m 868 1215 l 1563 1215 l 1563 1042 l 1389 1042 l 1389 174 l 1215 174 l 1215 1042 l 868 1042 l 868 1215 m 1215 174 l 1215 0 l 868 0 l 868 174 l 1215 174 z "},"ĳ":{"ha":1389,"x_min":174,"x_max":1215,"o":"m 347 1215 l 521 1215 l 521 1042 l 347 1042 l 347 1215 m 694 1042 l 1215 1042 l 1215 868 l 1042 868 l 1042 0 l 868 0 l 868 868 l 694 868 l 694 1042 m 868 0 l 868 -174 l 694 -174 l 694 0 l 868 0 m 694 0 l 174 0 l 174 174 l 347 174 l 347 694 l 174 694 l 174 868 l 521 868 l 521 174 l 694 174 l 694 0 z "}}}
